<svg width="300" height="264" viewBox="0 0 300 264" fill="none" xmlns="http://www.w3.org/2000/svg">
<path d="M28.3043 17.3555L10.1392 17.3555L10.1392 9.67917L28.3043 9.67917V17.3555Z" fill="#EBEBEB"/>
<path d="M18.1652 7.67627L0 7.67627L0 -2.71797e-05L18.1652 -2.71797e-05V7.67627Z" fill="#EBEBEB"/>
<path d="M247.995 132.727H229.83V125.05H247.995V132.727Z" fill="#EBEBEB"/>
<path d="M237.869 123.047H219.704V115.371H237.869V123.047Z" fill="#EBEBEB"/>
<path d="M227.771 132.727H209.606V125.05H227.771V132.727Z" fill="#EBEBEB"/>
<path d="M300 7.67627L281.835 7.67627V-2.71797e-05L300 -2.71797e-05V7.67627Z" fill="#EBEBEB"/>
<path d="M289.861 201.896H271.696V194.219H289.861V201.896Z" fill="#EBEBEB"/>
<path d="M300 192.216H281.835V184.54H300V192.216Z" fill="#EBEBEB"/>
<path d="M28.3043 201.896H10.1392L10.1392 194.219H28.3043V201.896Z" fill="#EBEBEB"/>
<path d="M69.9099 18.1377H123.815V83.52H69.9099V18.1377Z" fill="#EBEBEB"/>
<path d="M76.0702 24.106H117.655V77.5588H76.0702V24.106Z" fill="white"/>
<path d="M116.029 24.106H117.655V77.5588H116.029V24.106Z" fill="#DBDBDB"/>
<path d="M68.2843 18.1377H69.9102V83.52H68.2843V18.1377Z" fill="#DBDBDB"/>
<path d="M91.9647 36.2275H101.768V65.4441H91.9647V36.2275Z" fill="#DBDBDB"/>
<path d="M83.4583 58.3303H110.281V43.3345H83.4583V58.3303ZM109.608 57.6443H84.1443V44.0205H109.595L109.608 57.6443Z" fill="#EBEBEB"/>
<path d="M16.6286 99.2773H70.5342V164.66H16.6286V99.2773Z" fill="#EBEBEB"/>
<path d="M22.7958 105.246H64.3809V158.698H22.7958V105.246Z" fill="white"/>
<path d="M62.7551 105.246H64.3809V158.698H62.7551V105.246Z" fill="#DBDBDB"/>
<path d="M15.0099 99.2773H16.6357V164.66H15.0099V99.2773Z" fill="#DBDBDB"/>
<path d="M39.2049 119.062H47.6084V140.3H39.2049V119.062Z" fill="#EBEBEB"/>
<path d="M31.9606 146.988H55.209V131.629H31.9606V146.988ZM54.523 146.302H32.6466V132.315H54.523V146.302Z" fill="#DBDBDB"/>
<path d="M284.689 54.1113L164.886 54.1113V48.8566L284.689 48.8566V54.1113Z" fill="#EBEBEB"/>
<path d="M171.595 54.1182H176.85V71.4944H171.595V54.1182Z" fill="#EBEBEB"/>
<path d="M171.595 54.1182H176.85V59.4895H171.595V54.1182Z" fill="#DBDBDB"/>
<path d="M272.718 54.1182H277.973V71.4944H272.718V54.1182Z" fill="#EBEBEB"/>
<path d="M272.718 54.1182H277.973V59.4895H272.718V54.1182Z" fill="#DBDBDB"/>
<path d="M187.243 48.8634V15.3799H195.674V48.8634H187.243Z" fill="#C7C7C7"/>
<path d="M187.243 17.2663V13.5894H195.674V17.2663H187.243Z" fill="#DBDBDB"/>
<path d="M187.243 23.351V21.9858H195.674V23.351H187.243Z" fill="#DBDBDB"/>
<path d="M187.243 44.4733V40.7964H196.723V44.4733H187.243Z" fill="#DBDBDB"/>
<path d="M195.674 48.8634V9.80273H201.567V48.8634H195.674Z" fill="#DBDBDB"/>
<path d="M196.833 28.4965V13.4731H200.366V28.4965H196.833Z" fill="#EBEBEB"/>
<path d="M239.348 48.8794L211.57 21.4189L215.713 17.2282L243.491 44.6887L239.348 48.8794Z" fill="#C7C7C7"/>
<path d="M233.673 41.5774L222.989 31.0156L225.477 28.4983L236.161 39.06L233.673 41.5774Z" fill="#DBDBDB"/>
<path d="M201.566 48.8705V19.2012H211.575V48.8705H201.566Z" fill="#A6A6A6"/>
<path d="M201.56 45.7216V42.957H211.568V45.7216H201.56Z" fill="#C7C7C7"/>
<path d="M201.566 41.139V40.0688H211.575V41.139H201.566Z" fill="#C7C7C7"/>
<path d="M180.335 48.8701V20.9912H187.25V48.8701H180.335Z" fill="#A6A6A6"/>
<path d="M180.335 45.9139V43.314H187.25V45.9139H180.335Z" fill="#C7C7C7"/>
<path d="M180.335 29.3333V26.7334H187.25V29.3333H180.335Z" fill="#C7C7C7"/>
<path d="M180.328 32.1183V31.1099H187.243V32.1183H180.328Z" fill="#C7C7C7"/>
<path d="M260.445 13.1435C254.546 18.9196 253.585 27.8513 254.8 35.6716C254.8 35.85 255.108 35.802 255.108 35.6716C255.108 33.8881 255.053 32.125 255.06 30.3689C255.06 30.2866 255.115 30.2111 255.15 30.1288C256.74 29.0844 258.055 27.6726 258.984 26.0128C259.965 24.0783 260.356 21.8968 261.104 19.8388C261.179 19.6468 260.974 19.7016 260.836 19.8388C257.249 22.4799 256.103 25.3268 255.074 29.1341C255.095 27.1454 255.304 25.1632 255.698 23.2139C256.387 19.5325 258.085 16.1149 260.603 13.3425C260.713 13.219 260.562 13.0406 260.445 13.1435Z" fill="#A6A6A6"/>
<path d="M261.571 13.816C262.579 13.816 263.217 15.4761 264.006 15.9494C264.089 16.0167 264.186 16.0658 264.29 16.0934C264.394 16.121 264.502 16.1266 264.608 16.1098C264.714 16.093 264.815 16.0542 264.905 15.9958C264.995 15.9375 265.072 15.8609 265.131 15.7711C265.913 14.6803 264.836 13.3289 263.827 12.5743C264.495 12.9662 265.201 13.2902 265.933 13.5416C266.034 13.5735 266.139 13.5838 266.244 13.5718C266.348 13.5598 266.448 13.5258 266.539 13.4719C266.629 13.4181 266.706 13.3457 266.767 13.2595C266.827 13.1734 266.868 13.0754 266.887 12.9722C267.23 11.4836 265.357 10.8182 264.074 10.7907C264.699 10.3586 266.475 9.17866 265.529 8.60242C264.582 8.02618 262.503 9.70001 261.817 10.2557C260.816 11.072 259.622 12.3137 259.574 13.5553C259.485 15.0439 260.788 14.1316 261.571 13.816Z" fill="#DBDBDB"/>
<path d="M261.276 14.0696C262.572 13.4797 265.062 14.3303 265.275 13.8364C265.707 12.8349 263.711 12.1489 262.641 12.0185C263.629 11.751 265.522 11.3325 265.467 10.3721C265.398 9.20593 262.558 10.2075 261.118 11.3051C259.314 12.6771 259.321 14.0491 259.622 14.3029C260.034 14.6665 261.063 14.1657 261.276 14.0696Z" fill="#EBEBEB"/>
<path d="M247.027 12.5741C253.139 18.117 254.47 26.98 253.524 34.869C253.524 35.0474 253.222 35.0131 253.215 34.869C253.146 33.0854 253.139 31.3224 253.064 29.5662L252.961 29.333C251.335 28.3458 249.968 26.9839 248.975 25.3611C247.919 23.4609 247.452 21.2931 246.622 19.3037C246.54 19.1117 246.753 19.1597 246.89 19.2557C250.574 21.7596 251.829 24.5653 253.002 28.3246C252.905 26.3379 252.62 24.3649 252.152 22.4319C251.325 18.7785 249.499 15.4271 246.876 12.7525C246.78 12.6359 246.924 12.4781 247.027 12.5741Z" fill="#A6A6A6"/>
<path d="M245.944 13.2878C244.935 13.3633 244.359 15.0028 243.591 15.5104C243.51 15.5809 243.415 15.6336 243.312 15.6651C243.209 15.6966 243.101 15.7062 242.994 15.6932C242.888 15.6803 242.785 15.6452 242.693 15.59C242.6 15.5349 242.521 15.4611 242.459 15.3733C241.636 14.31 242.658 12.9242 243.639 12.1285C242.991 12.5498 242.302 12.9016 241.581 13.1781C241.482 13.2149 241.376 13.23 241.271 13.2223C241.166 13.2146 241.064 13.1843 240.971 13.1336C240.879 13.0828 240.798 13.0127 240.735 12.928C240.672 12.8434 240.628 12.7461 240.607 12.643C240.209 11.1681 242.054 10.4341 243.351 10.3586C242.713 9.94702 240.888 8.84257 241.814 8.22517C242.74 7.60777 244.908 9.213 245.607 9.73436C246.643 10.5095 247.885 11.6826 247.974 12.9517C248.098 14.4334 246.726 13.5691 245.944 13.2878Z" fill="#DBDBDB"/>
<path d="M246.252 13.5278C244.928 12.9859 242.472 13.9326 242.239 13.4455C241.773 12.4645 243.741 11.7031 244.805 11.5316C243.81 11.2983 241.896 10.9485 241.917 9.98809C241.917 8.8219 244.818 9.71369 246.293 10.7633C248.159 12.0804 248.2 13.4181 247.905 13.6993C247.514 14.0835 246.465 13.617 246.252 13.5278Z" fill="#EBEBEB"/>
<path d="M253.277 27.2205C253.693 30.1857 254.328 33.1161 255.177 35.9875C255.195 36.0371 255.23 36.0786 255.277 36.1042C255.323 36.1299 255.377 36.138 255.428 36.1272C255.48 36.1164 255.526 36.0872 255.558 36.0452C255.59 36.0032 255.606 35.951 255.602 35.8983C255.204 33.1955 254.47 30.5476 254.066 27.8447C253.625 25.1105 253.464 22.3385 253.585 19.5716C253.846 15.0235 255.081 10.1803 258.051 6.61315C258.113 6.53084 257.976 6.41422 257.907 6.48968C251.973 13.4251 252.899 21.9315 252.899 22.6929C252.056 19.8186 251.191 16.5189 248.001 13.6035C247.864 13.48 247.761 13.5417 247.782 13.7544C248.351 19.0777 249.84 21.856 252.92 24.7303C253.037 25.5672 253.146 26.3904 253.277 27.2205Z" fill="#A6A6A6"/>
<path d="M258.12 7.41564C259.19 6.93544 260.665 8.30057 261.721 8.38975C261.841 8.41871 261.966 8.4221 262.087 8.39968C262.209 8.37727 262.324 8.32956 262.425 8.25967C262.527 8.18977 262.613 8.09926 262.677 7.99402C262.741 7.88878 262.783 7.77118 262.798 7.64888C263.059 6.11911 261.262 5.26161 259.835 4.98721C260.734 4.93233 261.619 5.17243 262.504 4.93233C262.622 4.91356 262.735 4.8699 262.836 4.80421C262.936 4.73852 263.022 4.6523 263.087 4.55121C263.151 4.45012 263.194 4.33646 263.212 4.2177C263.23 4.09894 263.222 3.97778 263.19 3.86218C262.792 2.14033 260.521 2.39414 259.17 3.01154C259.602 2.25009 260.857 0.130359 259.588 0.00687984C258.319 -0.116599 257.016 2.68912 256.556 3.61522C255.925 4.98721 255.294 6.83254 255.87 8.17709C256.577 9.73431 257.461 8.12908 258.12 7.41564Z" fill="#DBDBDB"/>
<path d="M257.942 7.8201C258.991 6.55786 262.003 6.18057 261.975 5.56317C261.914 4.31466 259.506 4.60277 258.326 5.00751C259.218 4.23234 260.967 2.8329 260.425 1.87251C259.739 0.699455 257.324 3.16904 256.391 5.03495C255.211 7.38106 255.897 8.76677 256.343 8.89025C256.954 9.10291 257.763 8.0259 257.942 7.8201Z" fill="#EBEBEB"/>
<path d="M249.366 28.8188L246.725 48.8911H262.702C262.38 47.1144 259.403 28.8257 259.403 28.8257L249.366 28.8188Z" fill="#DBDBDB"/>
<path d="M10.736 256.439L45.5503 256.604L80.3714 256.666L150 256.782L219.629 256.666L254.45 256.604L289.264 256.439L254.45 256.268L219.629 256.206L150 256.096L80.3714 256.206L45.5503 256.268L10.736 256.439Z" fill="#263238"/>
<path d="M128.357 154.617C126.966 154.617 125.839 153.49 125.839 152.099C125.839 150.709 126.966 149.582 128.357 149.582C129.747 149.582 130.875 150.709 130.875 152.099C130.875 153.49 129.747 154.617 128.357 154.617Z" fill="white"/>
<path d="M89.9477 154.617C88.5573 154.617 87.4301 153.49 87.4301 152.099C87.4301 150.709 88.5573 149.582 89.9477 149.582C91.3382 149.582 92.4653 150.709 92.4653 152.099C92.4653 153.49 91.3382 154.617 89.9477 154.617Z" fill="white"/>
<path d="M51.539 154.617C50.1486 154.617 49.0214 153.49 49.0214 152.099C49.0214 150.709 50.1486 149.582 51.539 149.582C52.9295 149.582 54.0566 150.709 54.0566 152.099C54.0566 153.49 52.9295 154.617 51.539 154.617Z" fill="white"/>
<path d="M181.686 124.522C153.43 152.147 114.891 216.322 109.856 226.331C106.426 233.129 141.946 251.973 143.572 247.013C145.63 240.661 182.022 173.303 190.7 135.354C194.501 118.732 187.394 118.945 181.686 124.522Z" fill="#F7A9A0"/>
<path d="M145.363 242.342C144.039 245.73 139.477 260.178 136.445 261.913C133.413 263.649 117.793 262.942 109.911 262.777C102.028 262.613 100.526 260.383 100.711 257.674C100.897 254.964 117.45 254.792 117.45 254.792C117.45 254.792 95.2439 260.651 89.6325 261.55C84.021 262.448 71.186 265.432 69.4299 260.788C68.6341 258.689 72.1739 256.672 72.1739 256.672C72.1739 256.672 66.7682 258.126 65.9999 255.437C65.0875 252.378 69.3956 250.793 69.3956 250.793C69.3956 250.793 66.0205 251.404 65.9999 248.92C65.9382 243.384 87.0051 241.1 87.0051 241.1C87.0051 241.1 70.7539 248.598 70.3354 244.07C69.7454 237.8 102.858 231.633 106.343 228.978C108.627 227.13 110.542 224.868 111.989 222.311L145.363 242.342Z" fill="#F7A9A0"/>
<path d="M100.814 259.039C100.774 258.657 100.825 258.272 100.963 257.914C101.102 257.556 101.323 257.236 101.61 256.981C102.186 256.471 102.845 256.063 103.558 255.774C105.027 255.178 106.547 254.718 108.1 254.402C111.228 253.716 114.418 253.187 117.607 252.433C114.331 252.315 111.053 252.614 107.853 253.325C106.22 253.663 104.643 254.229 103.167 255.005C102.406 255.405 101.735 255.959 101.198 256.631C100.936 256.967 100.763 257.364 100.695 257.785C100.628 258.207 100.669 258.638 100.814 259.039Z" fill="#263238"/>
<path d="M72.2216 256.679C74.506 256.172 76.756 255.575 79.0061 254.978C81.2562 254.381 83.4925 253.736 85.7357 253.112L92.431 251.164C94.6605 250.519 96.8969 249.874 99.1538 249.257C96.8222 249.46 94.5073 249.822 92.2252 250.341C89.934 250.814 87.6771 251.418 85.427 252.049C83.1769 252.68 80.9612 253.421 78.7591 254.169C76.5571 254.916 74.3619 255.74 72.2216 256.679Z" fill="#263238"/>
<path d="M93.9336 243.625C91.7872 243.719 89.6504 243.969 87.5401 244.372C85.4252 244.751 83.3321 245.243 81.2701 245.847C79.2063 246.443 77.1772 247.153 75.1922 247.974C73.2031 248.78 71.273 249.724 69.4161 250.8C71.4741 250.114 73.4566 249.428 75.4872 248.776C77.5177 248.125 79.5414 247.487 81.5788 246.91C83.6162 246.334 85.6948 245.758 87.7528 245.202C89.8108 244.647 91.8482 244.146 93.9336 243.625Z" fill="#263238"/>
<path d="M90.792 238.288C83.8433 238.744 77.111 240.889 71.1794 244.537C74.4721 243.446 77.6689 242.28 80.9411 241.265C84.2133 240.25 87.4718 239.275 90.792 238.288Z" fill="#263238"/>
<path d="M110.583 221.46L152.202 246.458C152.202 246.458 186.502 161.113 190.934 138.756C195.365 116.4 187.298 115.618 174.339 129.386C159.186 145.493 110.583 221.46 110.583 221.46Z" fill="#B92B27"/>
<path d="M152.744 235.941C149.616 234.446 146.673 232.511 143.71 230.694C140.746 228.876 137.885 227.12 134.984 225.302C129.139 221.645 123.157 218.099 117.559 214.058C117.537 214.038 117.523 214.011 117.518 213.981C117.514 213.951 117.52 213.921 117.535 213.895C117.55 213.87 117.574 213.85 117.602 213.839C117.63 213.829 117.661 213.829 117.69 213.839C123.919 216.933 129.852 220.699 135.773 224.341C138.736 226.171 141.677 228.043 144.594 229.96C147.471 231.726 150.247 233.652 152.909 235.729C153.018 235.832 152.861 236.003 152.744 235.941Z" fill="#263238"/>
<path d="M152.545 228.004C153.005 228.183 153.402 228.494 153.685 228.898C153.969 229.303 154.126 229.782 154.137 230.275C154.132 230.603 154.21 230.927 154.365 231.216C154.52 231.506 154.746 231.751 155.022 231.928C155.326 232.124 155.676 232.237 156.037 232.258C156.435 232.326 156.847 232.381 157.258 232.491C156.449 232.628 155.632 232.95 154.693 232.587C154.241 232.394 153.855 232.073 153.584 231.663C153.314 231.254 153.169 230.773 153.17 230.282C153.165 229.958 153.077 229.64 152.914 229.36C152.75 229.08 152.517 228.847 152.237 228.683C151.926 228.495 151.571 228.389 151.208 228.375C150.803 228.306 150.391 228.251 149.987 228.148C150.803 228.004 151.578 227.689 152.545 228.004ZM126.937 196.311C127.188 196.539 127.389 196.815 127.53 197.122C127.67 197.43 127.746 197.764 127.754 198.102C127.748 198.429 127.826 198.753 127.979 199.042C128.133 199.331 128.357 199.576 128.632 199.755C128.939 199.95 129.291 200.063 129.654 200.084C130.052 200.153 130.463 200.208 130.875 200.318C130.058 200.455 129.249 200.777 128.309 200.414C127.857 200.222 127.471 199.901 127.2 199.491C126.929 199.081 126.785 198.6 126.786 198.109C126.789 197.731 126.669 197.362 126.443 197.059L126.937 196.311ZM155.975 193.389C156.438 193.571 156.836 193.888 157.116 194.299C157.396 194.71 157.546 195.196 157.546 195.694C157.542 196.022 157.621 196.345 157.776 196.634C157.931 196.924 158.156 197.169 158.431 197.347C158.736 197.542 159.086 197.655 159.447 197.676C159.851 197.745 160.256 197.8 160.668 197.91C159.858 198.047 159.049 198.369 158.102 198.006C157.65 197.814 157.265 197.493 156.996 197.082C156.726 196.672 156.583 196.192 156.586 195.701C156.578 195.377 156.489 195.061 156.326 194.781C156.162 194.502 155.931 194.268 155.653 194.102C155.341 193.916 154.987 193.81 154.624 193.794C154.212 193.725 153.801 193.67 153.403 193.567C154.233 193.389 155.015 193.073 155.975 193.389ZM156.147 163.891C156.599 163.705 157.096 163.657 157.575 163.755C158.054 163.853 158.493 164.091 158.836 164.44C159.072 164.666 159.361 164.827 159.677 164.91C159.992 164.993 160.324 164.994 160.64 164.913C160.992 164.825 161.313 164.645 161.573 164.392C161.916 164.152 162.259 163.912 162.609 163.706C162.129 164.392 161.8 165.167 160.887 165.613C160.436 165.822 159.933 165.889 159.443 165.806C158.953 165.723 158.5 165.493 158.143 165.147C157.917 164.909 157.633 164.734 157.32 164.638C157.006 164.542 156.673 164.528 156.353 164.598C155.998 164.67 155.671 164.838 155.406 165.085C155.07 165.318 154.72 165.565 154.377 165.771C154.871 165.092 155.214 164.282 156.174 163.884L156.147 163.891ZM171.76 148.58C171.953 148.13 172.273 147.748 172.682 147.479C173.091 147.211 173.569 147.069 174.058 147.071C174.385 147.067 174.706 146.979 174.989 146.814C175.271 146.649 175.506 146.414 175.67 146.131C175.855 145.819 175.955 145.464 175.958 145.102C176.048 144.69 176.089 144.292 176.205 143.881C176.329 144.69 176.658 145.479 176.329 146.446C176.156 146.906 175.849 147.304 175.448 147.587C175.047 147.871 174.57 148.028 174.079 148.038C173.568 148.032 173.075 148.226 172.704 148.578C172.334 148.931 172.116 149.414 172.096 149.924C172.014 150.336 171.973 150.734 171.863 151.145C171.726 150.35 171.39 149.52 171.76 148.573V148.58ZM116.99 223.394C117.178 222.943 117.496 222.558 117.905 222.289C118.313 222.02 118.793 221.879 119.281 221.885C119.607 221.879 119.926 221.79 120.208 221.626C120.49 221.463 120.726 221.231 120.894 220.952C121.075 220.632 121.177 220.271 121.189 219.903C121.271 219.519 121.312 219.107 121.415 218.695C121.559 219.505 121.888 220.287 121.559 221.247C121.388 221.71 121.081 222.11 120.678 222.394C120.275 222.678 119.795 222.833 119.302 222.839C118.973 222.835 118.648 222.915 118.358 223.073C118.069 223.23 117.825 223.459 117.649 223.737C117.442 224.032 117.323 224.379 117.306 224.739C117.265 224.972 117.23 225.199 117.189 225.425L116.942 225.274C116.76 224.656 116.777 223.996 116.99 223.388V223.394ZM138.585 181.288C138.774 180.837 139.092 180.452 139.501 180.184C139.909 179.915 140.388 179.774 140.877 179.779C141.202 179.773 141.521 179.684 141.803 179.521C142.085 179.358 142.321 179.125 142.489 178.846C142.677 178.528 142.778 178.166 142.784 177.796C142.866 177.405 142.907 177.001 143.01 176.589C143.154 177.398 143.483 178.18 143.154 179.141C142.983 179.603 142.676 180.003 142.273 180.287C141.87 180.572 141.39 180.727 140.897 180.732C140.386 180.737 139.896 180.936 139.526 181.289C139.157 181.642 138.936 182.122 138.908 182.633C138.832 183.044 138.784 183.456 138.681 183.847C138.544 183.044 138.208 182.235 138.585 181.288ZM173.839 180.437C174.029 179.987 174.348 179.604 174.756 179.335C175.163 179.067 175.642 178.925 176.13 178.928C176.456 178.924 176.776 178.836 177.058 178.673C177.341 178.509 177.576 178.276 177.742 177.995C177.929 177.679 178.031 177.32 178.037 176.953C178.119 176.561 178.161 176.15 178.263 175.738C178.439 176.359 178.534 177 178.545 177.645C178.523 177.867 178.477 178.086 178.407 178.297C178.333 178.511 178.226 178.712 178.092 178.894C177.864 179.195 177.571 179.442 177.235 179.614C176.899 179.786 176.528 179.88 176.151 179.889C175.641 179.893 175.151 180.091 174.782 180.443C174.413 180.794 174.191 181.273 174.161 181.782C174.086 182.194 174.038 182.605 173.935 182.996C173.798 182.2 173.461 181.384 173.839 180.431V180.437ZM139.367 214.675C139.557 214.227 139.875 213.844 140.281 213.575C140.688 213.307 141.165 213.164 141.652 213.166C141.977 213.16 142.295 213.072 142.576 212.908C142.857 212.745 143.091 212.513 143.257 212.233C143.447 211.92 143.553 211.563 143.566 211.197C143.634 210.8 143.689 210.388 143.799 209.983C143.929 210.786 144.252 211.575 143.929 212.542C143.756 213.003 143.447 213.401 143.042 213.682C142.638 213.964 142.158 214.117 141.666 214.12C141.337 214.122 141.014 214.204 140.726 214.361C140.437 214.518 140.192 214.744 140.012 215.018C139.81 215.319 139.701 215.672 139.697 216.034C139.601 216.432 139.56 216.829 139.457 217.241C139.313 216.438 138.983 215.622 139.367 214.669V214.675ZM190.474 132.054C190.949 131.831 191.486 131.775 191.997 131.896C191.997 132.198 191.935 132.5 191.901 132.816C191.525 132.679 191.117 132.655 190.728 132.747C190.376 132.84 190.053 133.019 189.788 133.268C189.452 133.495 189.136 133.755 188.773 133.954C189.226 133.268 189.555 132.514 190.474 132.054Z" fill="white"/>
<path opacity="0.1" d="M134.531 235.832L152.202 246.458C152.202 246.458 186.502 161.113 190.933 138.757C193.08 127.939 192.305 122.169 189.445 120.667L134.531 235.832Z" fill="black"/>
<path d="M169.819 256.576H279.654C281.252 254.69 260.082 154.671 215.266 123.218C201.039 113.237 182.812 117.408 179.773 129.687C166.814 182.111 168.358 254.895 169.819 256.576Z" fill="#B92B27"/>
<path d="M209.764 144.011C210.224 144.187 210.622 144.497 210.905 144.9C211.189 145.304 211.345 145.782 211.355 146.275C211.348 146.604 211.425 146.928 211.58 147.218C211.736 147.508 211.963 147.752 212.24 147.928C212.544 148.126 212.894 148.239 213.255 148.258C213.653 148.333 214.065 148.381 214.477 148.498C213.667 148.628 212.851 148.957 211.911 148.587C211.458 148.4 211.07 148.083 210.795 147.677C210.521 147.271 210.372 146.793 210.367 146.303C210.364 145.978 210.276 145.66 210.112 145.38C209.949 145.1 209.715 144.867 209.434 144.704C209.127 144.513 208.774 144.407 208.412 144.396C208.001 144.32 207.589 144.272 207.184 144.169C208.021 144.011 208.796 143.689 209.764 144.011ZM217.618 197.231C218.078 197.403 218.475 197.708 218.759 198.108C219.043 198.508 219.2 198.984 219.21 199.474C219.203 199.803 219.279 200.128 219.431 200.42C219.583 200.711 219.807 200.959 220.081 201.141C220.388 201.336 220.74 201.449 221.103 201.47C221.508 201.539 221.906 201.594 222.317 201.704C221.515 201.834 220.705 202.163 219.752 201.793C219.304 201.598 218.923 201.277 218.656 200.869C218.389 200.46 218.248 199.983 218.25 199.495C218.24 199.171 218.149 198.855 217.984 198.575C217.82 198.296 217.588 198.062 217.31 197.896C216.997 197.705 216.64 197.601 216.274 197.595C215.862 197.519 215.471 197.464 215.06 197.361C215.855 197.231 216.651 196.902 217.618 197.231ZM169.756 247.494C170.06 247.697 170.414 247.811 170.779 247.823C171.183 247.905 171.581 247.947 171.993 248.063C171.19 248.194 170.381 248.53 169.427 248.166C169.297 248.116 169.173 248.052 169.057 247.974C169.057 247.521 169.022 247.048 169.009 246.561C169.155 246.942 169.416 247.268 169.756 247.494ZM236.662 237.65C237.125 237.818 237.525 238.123 237.81 238.526C238.094 238.928 238.249 239.407 238.253 239.9C238.248 240.228 238.327 240.552 238.482 240.841C238.637 241.13 238.863 241.375 239.138 241.553C239.439 241.756 239.791 241.872 240.153 241.889C240.558 241.965 240.963 242.013 241.368 242.129C240.579 242.26 239.762 242.589 238.809 242.219C238.359 242.027 237.976 241.706 237.707 241.297C237.439 240.889 237.297 240.41 237.3 239.921C237.29 239.596 237.199 239.278 237.037 238.997C236.874 238.715 236.644 238.479 236.367 238.308C236.048 238.121 235.686 238.022 235.317 238.02C234.919 237.931 234.521 237.89 234.117 237.787C234.919 237.65 235.701 237.314 236.662 237.65ZM187.695 158.945C188.157 159.117 188.557 159.425 188.841 159.827C189.125 160.23 189.28 160.71 189.287 161.202C189.279 161.531 189.357 161.856 189.512 162.145C189.667 162.435 189.894 162.68 190.172 162.856C190.469 163.056 190.815 163.172 191.173 163.192C191.585 163.26 191.996 163.315 192.394 163.418C191.599 163.562 190.782 163.892 189.842 163.507C189.39 163.321 189.004 163.004 188.733 162.597C188.462 162.19 188.318 161.712 188.319 161.223C188.317 160.896 188.23 160.576 188.067 160.293C187.903 160.011 187.669 159.775 187.387 159.611C187.071 159.437 186.718 159.343 186.358 159.337C185.96 159.254 185.548 159.213 185.15 159.103C185.953 158.946 186.728 158.651 187.695 158.945ZM272.251 239.749C272.713 239.921 273.112 240.228 273.397 240.631C273.681 241.034 273.836 241.513 273.843 242.006C273.837 242.334 273.916 242.658 274.071 242.947C274.225 243.237 274.452 243.482 274.728 243.659C275.031 243.856 275.381 243.97 275.743 243.988C276.141 244.071 276.552 244.112 276.95 244.222C276.161 244.359 275.352 244.695 274.398 244.325C273.948 244.133 273.565 243.812 273.297 243.403C273.028 242.995 272.886 242.516 272.889 242.027C272.879 241.702 272.788 241.384 272.625 241.103C272.463 240.822 272.233 240.585 271.956 240.414C271.639 240.225 271.276 240.123 270.907 240.119C270.509 240.037 270.104 239.982 269.692 239.879C270.509 239.749 271.284 239.433 272.251 239.749ZM255.341 197.217C255.803 197.389 256.203 197.696 256.487 198.099C256.771 198.502 256.926 198.981 256.933 199.474C256.927 199.802 257.006 200.126 257.161 200.416C257.316 200.705 257.542 200.95 257.818 201.127C258.121 201.325 258.472 201.438 258.833 201.457C259.231 201.539 259.643 201.58 260.04 201.69C259.251 201.827 258.442 202.163 257.488 201.793C257.039 201.601 256.655 201.281 256.387 200.872C256.118 200.463 255.977 199.984 255.979 199.495C255.97 199.17 255.879 198.852 255.716 198.571C255.553 198.29 255.323 198.053 255.046 197.883C254.729 197.693 254.367 197.592 253.997 197.588C253.599 197.505 253.194 197.45 252.783 197.348C253.585 197.224 254.374 196.902 255.341 197.224V197.217ZM173.447 211.513C173.909 211.685 174.308 211.992 174.592 212.395C174.877 212.798 175.032 213.277 175.039 213.77C175.033 214.098 175.112 214.423 175.266 214.712C175.421 215.001 175.647 215.246 175.924 215.424C176.227 215.621 176.577 215.734 176.939 215.753C177.337 215.835 177.748 215.876 178.146 215.986C177.357 216.123 176.548 216.459 175.594 216.089C175.144 215.897 174.761 215.577 174.493 215.168C174.224 214.759 174.082 214.28 174.085 213.791C174.075 213.466 173.985 213.148 173.822 212.867C173.659 212.586 173.429 212.349 173.152 212.179C172.834 211.989 172.472 211.888 172.103 211.884C171.705 211.802 171.3 211.747 170.888 211.644C171.705 211.52 172.48 211.198 173.447 211.52V211.513ZM232.374 183.593C232.827 183.408 233.325 183.361 233.804 183.46C234.283 183.559 234.721 183.799 235.063 184.149C235.301 184.374 235.592 184.535 235.908 184.617C236.225 184.7 236.557 184.702 236.874 184.622C237.226 184.532 237.548 184.35 237.807 184.094C238.143 183.861 238.493 183.614 238.843 183.408C238.363 184.094 238.034 184.862 237.121 185.315C236.67 185.524 236.166 185.591 235.675 185.506C235.185 185.422 234.732 185.19 234.377 184.842C234.149 184.605 233.864 184.43 233.55 184.335C233.235 184.24 232.901 184.228 232.58 184.3C232.229 184.371 231.903 184.537 231.64 184.78C231.297 185.02 230.954 185.267 230.611 185.466C231.105 184.814 231.441 184.032 232.374 183.6V183.593ZM188.018 235.043C188.472 234.864 188.97 234.822 189.448 234.923C189.926 235.024 190.364 235.264 190.707 235.612C190.943 235.835 191.231 235.995 191.546 236.076C191.86 236.158 192.189 236.159 192.504 236.079C192.862 235.998 193.19 235.817 193.451 235.558C193.787 235.331 194.137 235.077 194.48 234.872C194.006 235.558 193.663 236.319 192.765 236.772C192.313 236.98 191.809 237.046 191.319 236.962C190.829 236.877 190.376 236.646 190.021 236.298C189.792 236.063 189.507 235.889 189.192 235.796C188.877 235.702 188.544 235.691 188.223 235.763C187.869 235.826 187.542 235.993 187.284 236.244C186.934 236.47 186.598 236.731 186.255 236.93C186.735 236.292 187.085 235.482 188.018 235.071V235.043ZM189.39 191.283C189.845 191.102 190.344 191.058 190.824 191.157C191.305 191.255 191.745 191.493 192.092 191.839C192.327 192.065 192.615 192.227 192.93 192.309C193.244 192.392 193.575 192.393 193.89 192.312C194.242 192.22 194.565 192.041 194.83 191.791C195.173 191.565 195.516 191.304 195.859 191.105C195.378 191.791 195.049 192.552 194.144 193.005C193.693 193.216 193.188 193.284 192.697 193.199C192.207 193.115 191.754 192.882 191.4 192.532C191.172 192.299 190.889 192.127 190.577 192.032C190.266 191.937 189.935 191.923 189.616 191.99C189.257 192.064 188.925 192.235 188.656 192.484C188.319 192.71 187.97 192.964 187.633 193.17C188.141 192.532 188.477 191.722 189.41 191.311L189.39 191.283ZM254.841 252.097C255.293 251.91 255.791 251.863 256.27 251.962C256.75 252.061 257.188 252.302 257.53 252.653C257.765 252.876 258.054 253.036 258.368 253.117C258.683 253.199 259.012 253.2 259.327 253.119C259.681 253.032 260.005 252.852 260.267 252.598C260.617 252.364 260.953 252.118 261.296 251.912C260.822 252.598 260.493 253.373 259.581 253.826C259.133 254.026 258.636 254.088 258.153 254.004C257.671 253.92 257.224 253.693 256.871 253.352C256.642 253.117 256.357 252.944 256.042 252.85C255.728 252.755 255.395 252.741 255.074 252.81C254.716 252.875 254.385 253.042 254.12 253.291C253.77 253.524 253.434 253.771 253.091 253.977C253.585 253.318 253.908 252.495 254.841 252.097ZM250.539 168.021C250.649 168.227 250.752 168.433 250.855 168.645C250.543 168.726 250.256 168.882 250.018 169.098C249.668 169.338 249.332 169.585 248.996 169.784C249.353 169.076 249.884 168.469 250.539 168.021ZM215.704 227.017C216.157 226.831 216.655 226.785 217.134 226.884C217.613 226.983 218.052 227.223 218.394 227.573C218.629 227.796 218.918 227.957 219.232 228.039C219.546 228.122 219.876 228.124 220.191 228.046C220.546 227.956 220.872 227.776 221.138 227.525C221.487 227.284 221.824 227.037 222.16 226.839C221.693 227.525 221.364 228.293 220.452 228.746C220.005 228.949 219.507 229.013 219.023 228.928C218.54 228.844 218.093 228.615 217.742 228.272C217.379 227.913 216.893 227.706 216.382 227.695C215.872 227.684 215.376 227.868 214.998 228.211C214.648 228.451 214.312 228.698 213.969 228.897C214.435 228.211 214.771 227.401 215.704 226.996V227.017ZM212.803 124.015C212.943 123.685 213.155 123.391 213.423 123.153C213.691 122.916 214.009 122.742 214.353 122.643C214.655 122.835 214.964 123.04 215.265 123.253L215.533 123.445C215.395 123.473 215.255 123.487 215.114 123.486C214.788 123.483 214.467 123.561 214.179 123.715C213.891 123.868 213.647 124.092 213.468 124.364C213.263 124.667 213.148 125.021 213.139 125.387C213.05 125.784 213.008 126.196 212.906 126.594C212.768 125.757 212.425 124.948 212.803 123.994V124.015ZM236.655 214.669C236.85 214.221 237.171 213.84 237.579 213.572C237.987 213.304 238.465 213.161 238.953 213.16C239.276 213.152 239.593 213.063 239.872 212.899C240.152 212.736 240.385 212.505 240.551 212.227C240.741 211.914 240.847 211.557 240.86 211.191C240.929 210.793 240.983 210.382 241.086 209.977C241.217 210.779 241.546 211.568 241.217 212.536C241.045 212.995 240.738 213.392 240.336 213.673C239.935 213.955 239.457 214.108 238.967 214.113C238.637 214.114 238.313 214.196 238.023 214.353C237.733 214.51 237.487 214.736 237.306 215.012C237.109 215.316 236.996 215.666 236.977 216.027C236.909 216.425 236.854 216.823 236.744 217.235C236.614 216.439 236.284 215.623 236.655 214.669ZM230.693 161.12C230.885 160.67 231.205 160.286 231.614 160.017C232.023 159.749 232.502 159.607 232.992 159.611C233.317 159.608 233.636 159.52 233.917 159.356C234.199 159.193 234.433 158.959 234.597 158.678C234.785 158.365 234.887 158.007 234.892 157.642C234.974 157.244 235.015 156.833 235.132 156.421C235.262 157.244 235.591 158.019 235.262 158.987C235.09 159.448 234.782 159.847 234.379 160.131C233.977 160.415 233.498 160.571 233.005 160.578C232.678 160.573 232.355 160.65 232.065 160.804C231.776 160.957 231.531 161.182 231.352 161.456C231.154 161.757 231.04 162.105 231.023 162.465C230.94 162.876 230.899 163.288 230.79 163.686C230.652 162.897 230.316 162.081 230.693 161.12ZM176.452 145.178C176.507 145.602 176.465 146.034 176.328 146.44C176.281 146.579 176.219 146.712 176.143 146.838C176.239 146.303 176.342 145.726 176.452 145.178ZM207.37 174.559C207.563 174.108 207.886 173.725 208.298 173.457C208.709 173.19 209.191 173.05 209.681 173.056C210.008 173.048 210.328 172.957 210.61 172.792C210.892 172.626 211.127 172.391 211.294 172.11C211.476 171.797 211.573 171.443 211.575 171.081C211.671 170.676 211.712 170.271 211.822 169.86C211.945 170.676 212.274 171.465 211.945 172.425C211.776 172.886 211.471 173.285 211.071 173.569C210.67 173.853 210.193 174.009 209.702 174.017C209.375 174.012 209.052 174.09 208.763 174.243C208.473 174.397 208.228 174.621 208.049 174.895C207.843 175.194 207.729 175.547 207.719 175.91C207.637 176.322 207.596 176.72 207.479 177.131C207.342 176.336 207.006 175.499 207.37 174.559ZM173.838 180.431C174.028 179.981 174.347 179.597 174.755 179.329C175.163 179.06 175.641 178.919 176.129 178.922C176.456 178.918 176.775 178.83 177.058 178.666C177.34 178.503 177.575 178.27 177.741 177.989C177.928 177.673 178.03 177.313 178.036 176.946C178.119 176.555 178.16 176.143 178.263 175.732C178.407 176.541 178.736 177.323 178.407 178.291C178.234 178.752 177.927 179.151 177.524 179.435C177.121 179.719 176.643 179.875 176.15 179.882C175.64 179.886 175.151 180.084 174.781 180.436C174.412 180.788 174.19 181.266 174.161 181.775C174.085 182.187 174.037 182.599 173.934 182.99C173.797 182.201 173.461 181.384 173.838 180.431ZM212.213 255.458C212.401 255.007 212.72 254.623 213.128 254.354C213.536 254.085 214.015 253.944 214.504 253.949C214.828 253.941 215.145 253.85 215.425 253.686C215.704 253.521 215.937 253.289 216.102 253.009C216.292 252.696 216.398 252.339 216.411 251.973C216.48 251.576 216.535 251.164 216.644 250.766C216.781 251.562 217.097 252.358 216.781 253.318C216.606 253.78 216.296 254.178 215.891 254.461C215.486 254.744 215.005 254.898 214.511 254.903C214.183 254.904 213.861 254.986 213.573 255.142C213.284 255.297 213.039 255.522 212.858 255.794C212.702 256.029 212.604 256.297 212.569 256.576H212.041C212.01 256.195 212.068 255.812 212.213 255.458ZM256.59 229.994C256.778 229.543 257.097 229.159 257.505 228.89C257.913 228.621 258.392 228.48 258.881 228.485C259.199 228.473 259.509 228.381 259.782 228.218C260.055 228.055 260.283 227.826 260.445 227.552C260.638 227.24 260.745 226.883 260.754 226.516C260.829 226.118 260.877 225.707 260.987 225.309C261.124 226.105 261.44 226.9 261.124 227.861C260.95 228.323 260.64 228.722 260.234 229.005C259.829 229.288 259.348 229.441 258.854 229.445C258.526 229.447 258.204 229.529 257.916 229.685C257.627 229.84 257.382 230.064 257.2 230.337C257.003 230.64 256.894 230.991 256.885 231.352C256.789 231.75 256.748 232.155 256.652 232.567C256.542 231.764 256.213 230.955 256.59 229.994ZM198.781 214.662C198.972 214.213 199.291 213.83 199.698 213.561C200.106 213.293 200.584 213.151 201.072 213.153C201.396 213.146 201.712 213.057 201.992 212.893C202.272 212.73 202.505 212.498 202.671 212.22C202.864 211.908 202.97 211.551 202.979 211.184C203.055 210.786 203.103 210.375 203.212 209.97C203.35 210.773 203.665 211.561 203.35 212.529C203.175 212.99 202.864 213.388 202.459 213.67C202.054 213.952 201.573 214.104 201.079 214.106C200.751 214.108 200.428 214.191 200.139 214.348C199.851 214.505 199.606 214.731 199.426 215.005C199.227 215.307 199.117 215.659 199.11 216.02C199.014 216.418 198.973 216.816 198.877 217.228C198.705 216.439 198.404 215.623 198.781 214.669V214.662ZM190.474 132.054C190.924 131.845 191.428 131.778 191.918 131.861C192.408 131.945 192.861 132.175 193.217 132.521C193.576 132.887 194.062 133.099 194.574 133.113C195.086 133.127 195.584 132.942 195.961 132.596C196.304 132.363 196.647 132.102 196.997 131.91C196.524 132.596 196.174 133.378 195.241 133.79C194.788 133.975 194.291 134.021 193.812 133.922C193.333 133.823 192.894 133.584 192.552 133.234C192.318 133.009 192.03 132.847 191.715 132.764C191.4 132.681 191.07 132.68 190.755 132.761C190.395 132.846 190.062 133.021 189.788 133.269C189.451 133.495 189.136 133.756 188.772 133.955C189.225 133.269 189.554 132.514 190.474 132.054Z" fill="white"/>
<path d="M187.044 140.588C193.012 140.588 200.73 129.742 202.952 121.867C203.096 121.325 196.675 102.598 195.79 98.756C195.612 97.9602 173.002 110.178 173.002 110.178C173.002 110.178 177.234 117.683 178.737 124.392C178.86 124.954 181.275 140.554 187.044 140.588Z" fill="#F7A9A0"/>
<path d="M173.001 110.171C173.001 110.171 177.234 117.683 178.743 124.392C178.743 124.529 178.929 125.503 179.223 126.909C190.446 123.205 196.126 114.486 198.788 108.545C197.416 104.299 196.147 100.313 195.79 98.7559C195.605 97.967 173.001 110.171 173.001 110.171Z" fill="#263238"/>
<path d="M159.192 69.1826C159.192 69.1826 152.573 74.9381 153.766 83.2181C154.96 91.4981 159.481 99.092 160.29 99.2635C161.1 99.435 159.192 69.1826 159.192 69.1826Z" fill="#263238"/>
<path d="M192.601 69.0179C198.089 76.3786 202.205 101.802 198.239 109.217C192.463 119.974 178.764 125.681 168.543 117.799C158.637 110.143 153.814 76.9206 158.664 69.7382C165.778 59.1807 184.513 58.1449 192.601 69.0179Z" fill="#F7A9A0"/>
<path d="M165.696 94.4547C165.696 94.3929 165.586 94.5713 165.6 94.6399C166.094 96.3274 166.368 98.3443 164.969 99.3047C164.928 99.3047 164.969 99.4144 165.01 99.3938C166.821 98.653 166.43 95.9776 165.696 94.4547Z" fill="#263238"/>
<path d="M163.72 93.0692C160.935 93.5563 162.122 99.106 164.701 98.6464C167.28 98.1868 166.059 92.6576 163.72 93.0692Z" fill="#263238"/>
<path d="M180.87 107.331C180.582 107.838 180.342 108.504 179.745 108.737C179.115 108.907 178.456 108.945 177.81 108.847C177.797 108.845 177.783 108.847 177.771 108.853C177.759 108.86 177.749 108.87 177.744 108.883C177.738 108.896 177.737 108.91 177.74 108.923C177.744 108.936 177.751 108.948 177.762 108.957C178.1 109.223 178.504 109.392 178.931 109.445C179.358 109.498 179.791 109.434 180.184 109.258C180.501 109.067 180.753 108.787 180.911 108.453C181.068 108.118 181.123 107.744 181.069 107.379C181.083 107.248 180.945 107.255 180.87 107.331Z" fill="#263238"/>
<path d="M170.155 101.788C170.155 101.788 170.395 104.422 170.683 105.63C170.683 105.739 174.065 104.649 177.879 105.012C178.448 105.067 178.339 104.621 177.66 104.402C176.288 103.97 174.607 103.613 171.486 104.34C171.321 104.024 171.177 100.272 170.985 100.306C170.069 100.608 169.197 101.031 168.392 101.562C167.706 96.0738 167.932 90.5446 167.184 85.0978C167.177 85.0591 167.155 85.0242 167.125 84.9992C167.094 84.9741 167.056 84.9604 167.016 84.9604C166.977 84.9604 166.938 84.9741 166.908 84.9992C166.877 85.0242 166.856 85.0591 166.848 85.0978C166.217 90.8876 166.848 97.2125 167.404 102.886C167.452 103.592 169.716 102.104 170.155 101.788Z" fill="#263238"/>
<path d="M174.662 89.145C175.444 89.2478 176.178 89.2067 176.953 89.2341C177.838 89.2341 178.531 89.3713 179.313 88.8774C179.511 88.7167 179.652 88.4964 179.715 88.2493C179.778 88.0022 179.759 87.7413 179.663 87.5054C179.155 86.5039 178.085 86.2089 177.028 86.1334C175.965 86.0216 174.899 86.3103 174.037 86.9429C173.855 87.1 173.722 87.3057 173.653 87.5361C173.584 87.7664 173.582 88.0116 173.647 88.243C173.713 88.4743 173.843 88.6821 174.023 88.8419C174.203 89.0017 174.424 89.1068 174.662 89.145Z" fill="#263238"/>
<path d="M160.695 86.353C161.372 85.9992 162.03 85.6076 162.663 85.18C163.411 84.7204 164.035 84.4322 164.447 83.6022C164.532 83.3535 164.532 83.0834 164.446 82.8348C164.36 82.5862 164.194 82.3735 163.974 82.2302C163.006 81.6745 161.916 82.0038 161.024 82.5183C160.074 83.0085 159.34 83.8351 158.966 84.837C158.892 85.0695 158.888 85.3184 158.954 85.5533C159.019 85.7882 159.152 85.9989 159.335 86.1597C159.518 86.3205 159.745 86.4245 159.986 86.4588C160.227 86.4931 160.474 86.4564 160.695 86.353Z" fill="#263238"/>
<path d="M180.801 91.7791C180.273 91.642 179.727 91.5865 179.182 91.6145C178.62 91.6438 178.066 91.7548 177.536 91.9437C176.982 92.157 176.473 92.471 176.034 92.8698C175.584 93.3097 175.237 93.8439 175.018 94.4339L174.62 95.5041L175.704 95.2365C176.467 95.042 177.25 94.9338 178.037 94.9141C178.856 94.8726 179.671 95.0452 180.403 95.4149C179.854 94.6757 179.036 94.1827 178.126 94.0429C177.229 93.8738 176.307 93.8902 175.416 94.0909L176.068 94.8524C176.432 93.9989 177.079 93.2965 177.9 92.863C178.815 92.3757 179.791 92.0113 180.801 91.7791Z" fill="#263238"/>
<path d="M178.235 96.7322C177.383 96.6384 176.546 96.4356 175.745 96.1285C175.56 96.0324 174.826 95.6208 174.847 95.4425C174.879 95.005 174.969 94.5736 175.114 94.1597C174.855 94.5474 174.677 94.9839 174.593 95.4425C174.673 95.6765 174.805 95.8897 174.978 96.0665C175.151 96.2433 175.362 96.3793 175.594 96.4646C176.434 96.7935 177.347 96.886 178.235 96.7322Z" fill="#263238"/>
<path d="M172.94 104.923C172.94 104.923 175.265 107.468 177.563 107.516C180.204 107.571 180.198 105.204 177.166 104.258C175.581 103.771 172.94 104.923 172.94 104.923Z" fill="#263238"/>
<path d="M177.557 107.51C176.561 107.435 175.609 107.075 174.813 106.474C175.231 105.602 176.356 104.553 179.327 105.678C179.841 106.625 179.224 107.551 177.557 107.51Z" fill="#FF99BA"/>
<path d="M197.78 92.8978C194.926 94.2698 190.124 85.7977 188.629 82.4844C187.305 79.5689 184.856 70.0541 184.609 69.4161C184.362 68.7781 172.864 79.9462 164.996 78.8829C157.128 77.8196 151.064 71.824 150.48 68.6821C149.897 65.5402 158.026 56.1078 166.073 54.4683C174.12 52.8287 186.653 61.4654 186.653 61.4654C186.653 61.4654 182.256 57.5827 182.324 57.1985C182.393 56.8144 187.95 58.1109 189.472 61.6918C189.472 61.6918 187.73 57.1711 188.1 57.0202C188.471 56.8693 193.156 60.2649 192.697 63.4411C192.697 63.4411 198.02 66.8025 199.131 71.2066C200.243 75.6107 201.128 91.2857 197.78 92.8978Z" fill="#263238"/>
<path d="M159.398 78.1215C161.854 78.8075 164.324 79.6444 166.944 79.5895C169.736 79.5346 172.432 78.4165 174.867 77.0582C177.304 75.6554 179.496 73.8643 181.357 71.7554C183.01 69.917 184.396 67.7972 186.2 66.1028C186.646 65.6844 187.346 66.3223 187.105 66.83C184.746 71.8789 179.916 76.53 174.956 78.9721C169.736 81.5446 164.392 81.0987 159.412 78.1901C159.35 78.1695 159.357 78.1146 159.398 78.1215Z" fill="#263238"/>
<path d="M194.48 91.5803C194.48 91.5803 197.32 81.9764 201.498 82.7516C205.676 83.5267 205.353 96.1353 201.724 99.0645C201.285 99.4723 200.767 99.7869 200.203 99.9893C199.638 100.192 199.039 100.278 198.44 100.243C197.841 100.208 197.256 100.052 196.72 99.7842C196.183 99.5169 195.706 99.1438 195.317 98.6872L194.48 91.5803Z" fill="#F7A9A0"/>
<path d="M201.313 86.3666C201.326 86.3625 201.34 86.3629 201.353 86.3678C201.366 86.3727 201.377 86.3819 201.384 86.3937C201.391 86.4056 201.394 86.4195 201.392 86.4333C201.39 86.447 201.384 86.4598 201.374 86.4695C198.864 88.6166 198.232 91.8202 198.095 94.969C198.596 93.597 199.577 92.6229 201.361 93.1717C201.457 93.1717 201.422 93.3432 201.361 93.35C200.796 93.3594 200.247 93.543 199.79 93.8758C199.334 94.2085 198.991 94.6741 198.809 95.2091C198.513 96.0997 198.315 97.0197 198.219 97.9531C198.164 98.2549 197.649 98.2755 197.649 97.9531V97.8844C196.312 94.2144 197.464 88.0678 201.313 86.3666Z" fill="#263238"/>
<path d="M170.491 111.467C172.666 115.429 174.482 119.578 175.917 123.863C176.26 124.954 176.569 126.045 176.809 127.122C176.809 127.163 176.809 127.266 176.864 127.43C176.864 127.492 176.864 127.568 176.905 127.65C176.987 128.089 177.111 128.768 177.282 129.605C177.286 129.648 177.286 129.692 177.282 129.735C177.285 129.751 177.285 129.767 177.282 129.783C177.279 129.765 177.279 129.747 177.282 129.728C181.028 122.117 182.743 113.667 182.263 105.197L180.657 106.041L179.553 106.624L178.476 107.194L177.509 107.701L176.932 108.003L176.006 108.497L175.08 108.991L174.216 109.45L173.42 109.876L170.491 111.467Z" fill="#F7A9A0"/>
<path d="M170.491 111.46C172.666 115.422 174.482 119.571 175.917 123.856C176.26 124.947 176.569 126.038 176.809 127.115C176.809 127.156 176.809 127.259 176.864 127.424C176.864 127.485 176.864 127.561 176.905 127.643C176.987 128.082 177.111 128.761 177.282 129.598C177.279 129.639 177.279 129.681 177.282 129.722C181.028 122.11 182.743 113.66 182.263 105.19L180.657 106.034C180.287 106.226 179.917 106.418 179.553 106.617L178.476 107.187L177.509 107.694L176.926 108.01L176 108.504C175.675 108.668 175.366 108.833 175.073 108.998L174.209 109.457L173.413 109.883L170.491 111.46Z" fill="#263238"/>
<path d="M155.282 66.3291C155.282 66.3291 147.99 72.6677 149.314 81.7846C150.638 90.9015 155.605 99.2569 156.49 99.449C157.375 99.6411 155.282 66.3291 155.282 66.3291Z" fill="#263238"/>
<path d="M154.926 97.4733C157.135 107.146 160.825 116.174 165.579 119.844C168.547 122.184 172.148 123.579 175.917 123.85C177.205 123.938 178.499 123.899 179.779 123.733C181.797 117.778 182.649 111.489 182.29 105.211C182.057 101.178 181.332 97.1874 180.129 93.3299C179.499 91.3133 178.743 89.3383 177.865 87.4166C177.966 87.1134 177.952 86.7836 177.824 86.4905C177.627 86.1026 177.328 85.7755 176.96 85.5438C175.507 82.6963 173.776 79.9987 171.794 77.4902C171.403 76.9826 170.999 76.4887 170.587 76.0085C170.367 75.7478 170.141 75.494 169.901 75.2402C166.094 70.9704 161.575 67.3937 156.545 64.6689C155.916 65.3363 155.339 66.0495 154.816 66.8024L154.706 66.967C153.739 68.4008 153.121 70.788 152.827 73.779C152.189 80.0421 152.991 89.0012 154.926 97.4733Z" fill="#F7A9A0"/>
<path d="M162.444 94.1664C162.444 94.0978 162.32 94.2899 162.341 94.3653C162.883 96.2244 163.185 98.447 161.655 99.4966C161.607 99.5309 161.655 99.6269 161.696 99.5995C163.686 98.7763 163.253 95.8334 162.444 94.1664Z" fill="#263238"/>
<path d="M160.29 92.6302C157.223 93.1653 158.527 99.2707 161.374 98.8042C164.221 98.3377 162.849 92.1775 160.29 92.6302Z" fill="#263238"/>
<path d="M179.189 108.332C178.873 108.895 178.606 109.622 177.947 109.876C177.255 110.068 176.53 110.11 175.821 109.999C175.805 109.996 175.788 109.997 175.774 110.004C175.759 110.011 175.748 110.023 175.741 110.038C175.735 110.053 175.734 110.069 175.738 110.085C175.743 110.1 175.752 110.114 175.766 110.123C176.139 110.409 176.583 110.589 177.051 110.643C177.518 110.698 177.991 110.625 178.421 110.432C178.767 110.223 179.045 109.916 179.218 109.55C179.391 109.184 179.453 108.774 179.395 108.374C179.388 108.243 179.237 108.243 179.189 108.332Z" fill="#263238"/>
<path d="M167.349 102.227C167.349 102.227 167.623 105.129 167.932 106.46C167.966 106.583 171.664 105.376 175.855 105.774C176.487 105.829 176.37 105.342 175.622 105.088C174.127 104.608 172.254 104.217 168.803 105.019C168.625 104.669 168.467 100.54 168.255 100.574C167.247 100.903 166.287 101.364 165.401 101.946C164.66 95.9161 164.893 89.8175 164.07 83.8219C164.07 83.7728 164.05 83.7257 164.016 83.691C163.981 83.6562 163.934 83.6367 163.885 83.6367C163.836 83.6367 163.789 83.6562 163.754 83.691C163.719 83.7257 163.7 83.7728 163.7 83.8219C163.014 90.2017 163.7 97.1577 164.31 103.407C164.406 104.217 166.876 102.577 167.349 102.227Z" fill="#263238"/>
<path d="M172.322 88.3016C173.159 88.3806 174 88.4149 174.84 88.4045C175.814 88.4045 176.583 88.5555 177.433 88.0135C177.643 87.8657 177.796 87.6501 177.865 87.403C177.966 87.0998 177.952 86.77 177.824 86.4769C177.627 86.089 177.328 85.7619 176.96 85.5302C176.33 85.1771 175.624 84.984 174.902 84.9677C173.731 84.8473 172.557 85.1677 171.609 85.8663C171.397 86.0363 171.24 86.2655 171.158 86.5249C171.076 86.7842 171.074 87.062 171.15 87.323C171.227 87.5839 171.379 87.8163 171.588 87.9905C171.796 88.1648 172.052 88.2731 172.322 88.3016Z" fill="#263238"/>
<path d="M156.936 85.2487C157.681 84.859 158.405 84.4285 159.103 83.959C159.933 83.4514 160.647 83.1358 161.065 82.2166C161.158 81.9456 161.157 81.6515 161.064 81.3807C160.971 81.11 160.79 80.8779 160.551 80.7211C159.487 80.1037 158.321 80.4673 157.299 81.0367C156.251 81.5718 155.441 82.4796 155.028 83.5817C154.942 83.8385 154.934 84.1151 155.005 84.3765C155.076 84.638 155.222 84.8726 155.426 85.0509C155.63 85.2292 155.882 85.3431 156.151 85.3783C156.42 85.4135 156.693 85.3684 156.936 85.2487Z" fill="#263238"/>
<path d="M179.08 91.2032C177.89 90.904 176.638 90.9686 175.485 91.3885C174.872 91.6216 174.309 91.9684 173.825 92.4106C173.325 92.9044 172.943 93.5047 172.707 94.1667L172.268 95.3398L173.461 95.0448C174.305 94.8407 175.167 94.7234 176.034 94.695C176.936 94.6494 177.834 94.8385 178.641 95.2438C178.036 94.4241 177.135 93.8727 176.13 93.7071C175.145 93.5162 174.13 93.5349 173.153 93.762L173.9 94.6401C174.306 93.6997 175.02 92.9254 175.924 92.4449C176.919 91.8997 177.98 91.4825 179.08 91.2032Z" fill="#263238"/>
<path d="M176.246 96.6568C175.305 96.5529 174.382 96.3221 173.502 95.9708C173.296 95.8747 172.494 95.4151 172.514 95.2848C172.549 94.8005 172.649 94.3229 172.809 93.8647C172.528 94.2943 172.332 94.7741 172.233 95.2779C172.323 95.5351 172.469 95.7693 172.66 95.9638C172.85 96.1583 173.082 96.3082 173.337 96.4029C174.266 96.7513 175.272 96.8391 176.246 96.6568Z" fill="#263238"/>
<path d="M170.422 105.685C170.422 105.685 172.981 108.483 175.512 108.538C178.421 108.6 178.414 105.986 175.08 104.951C173.324 104.402 170.422 105.685 170.422 105.685Z" fill="#263238"/>
<path d="M175.505 108.531C174.398 108.45 173.337 108.055 172.446 107.393C172.912 106.425 174.147 105.273 177.419 106.515C178.016 107.557 177.337 108.572 175.505 108.531Z" fill="#FF99BA"/>
<path d="M145.692 65.7802C146.015 67.5432 147.915 70.1294 150.851 72.3932C151.481 72.8874 152.138 73.3455 152.82 73.7652C153.775 74.3719 154.778 74.9017 155.817 75.3499C157.678 76.1774 159.645 76.7386 161.662 77.0168C164.207 77.3598 167.095 76.5435 169.894 75.2332C166.088 70.9666 161.572 67.3922 156.545 64.6689C153.719 63.1293 150.748 61.8746 147.675 60.9233C146.248 62.8853 145.486 64.6689 145.692 65.7802Z" fill="#263238"/>
<path d="M155.488 76.2416L155.872 76.4611C160.99 79.3286 166.437 79.8294 171.788 77.4764C171.397 76.9687 170.992 76.4748 170.58 75.9946C168.465 77.0673 166.145 77.6776 163.775 77.7851C161.031 77.84 158.445 77.0236 155.866 76.2759L155.516 76.173C155.488 76.1593 155.488 76.221 155.488 76.2416Z" fill="#263238"/>
<path d="M169.849 202.494L156.444 206.675L143.498 165.161L156.904 160.981L169.849 202.494Z" fill="#EBEBEB"/>
<path d="M115.371 51.3058C126.581 47.8099 138.577 47.7168 149.84 51.0383C161.104 54.3598 171.129 60.9467 178.649 69.9661C186.169 78.9854 190.845 90.0321 192.087 101.709C193.328 113.386 191.079 125.169 185.624 135.568C180.169 145.967 171.753 154.515 161.439 160.131C151.126 165.746 139.38 168.178 127.685 167.117C115.99 166.057 104.872 161.552 95.737 154.173C86.6022 146.794 79.8608 136.872 76.3651 125.661C74.0432 118.218 73.2103 110.39 73.914 102.624C74.6177 94.8592 76.8441 87.3086 80.4663 80.4039C84.0884 73.4992 89.0352 67.3756 95.0242 62.3829C101.013 57.3902 107.927 53.6262 115.371 51.3058ZM85.9622 122.649C88.8622 131.963 94.4594 140.208 102.046 146.341C109.632 152.473 118.866 156.218 128.581 157.102C138.296 157.985 148.055 155.968 156.623 151.305C165.191 146.642 172.184 139.542 176.717 130.905C181.25 122.267 183.12 112.479 182.089 102.778C181.058 93.0778 177.174 83.9009 170.928 76.4083C164.681 68.9158 156.352 63.444 146.996 60.6853C137.639 57.9265 127.674 58.0046 118.362 60.9098C105.877 64.805 95.4496 73.4994 89.3738 85.0812C83.298 96.6629 82.0708 110.184 85.9622 122.67V122.649Z" fill="#455A64"/>
<path d="M188.43 249.963L168.158 256.281L149.204 195.495L169.476 189.177L188.43 249.963Z" fill="#263238"/>
<g opacity="0.3">
<path d="M180.122 93.3162C183.025 102.629 183.1 112.593 180.339 121.949C177.578 131.305 172.105 139.632 164.611 145.876C157.118 152.121 147.94 156.003 138.24 157.032C128.54 158.061 118.753 156.189 110.116 151.655C101.479 147.121 94.3811 140.127 89.7194 131.559C85.0577 122.99 83.0419 113.231 83.9268 103.517C84.8116 93.8026 88.5575 84.5688 94.6906 76.9835C100.824 69.3981 109.069 63.802 118.382 60.9029C130.868 57.0165 144.386 58.2478 155.964 64.3261C167.541 70.4045 176.231 80.8321 180.122 93.3162Z" fill="white"/>
<path d="M182.365 107.091C182.58 120.086 177.664 132.643 168.682 142.037C159.701 151.432 147.379 156.908 134.387 157.278L182.365 107.091Z" fill="#EBEBEB"/>
<path d="M156.455 64.5868L90.7435 133.365C88.7239 130.006 87.1119 126.418 85.9415 122.677C84.5931 118.392 83.8474 113.941 83.7258 109.451L132.233 58.6872C140.679 58.5443 149.02 60.5759 156.455 64.5868Z" fill="#EBEBEB"/>
<path d="M178.421 88.6787L115.831 154.191C112.803 153.057 109.893 151.632 107.139 149.938L173.79 80.1724C175.62 82.8424 177.172 85.6927 178.421 88.6787Z" fill="#EBEBEB"/>
<path d="M162.163 68.195L94.613 138.908C94.2357 138.441 93.8653 137.975 93.5086 137.494L160.736 67.166C161.196 67.4953 161.662 67.8314 162.163 68.195Z" fill="#EBEBEB"/>
<path d="M116.016 61.6982L86.0307 93.0826C86.4698 91.7106 86.9843 90.2837 87.5605 88.9254L111.948 63.3995C113.256 62.7775 114.612 62.2105 116.016 61.6982Z" fill="#EBEBEB"/>
</g>
<path d="M100.457 118.54C100.457 118.478 100.457 118.416 100.403 118.355C100.176 117.463 100.595 119.24 100.471 118.636C100.32 117.95 100.176 117.202 100.06 116.475C99.6573 113.941 99.4668 111.378 99.4901 108.813C99.4901 108.449 99.4901 108.127 99.4901 107.729C99.4901 107.612 99.449 108.586 99.4901 107.811C99.4901 107.585 99.4901 107.365 99.5313 107.125C99.5793 106.274 99.6616 105.424 99.7645 104.573C99.9841 102.702 100.328 100.848 100.794 99.0233C100.91 98.5912 101.034 98.159 101.157 97.7199C101.315 97.1368 100.938 98.4059 101.191 97.6033C101.281 97.3426 101.363 97.0888 101.445 96.8282C101.781 95.854 102.131 94.8936 102.563 93.947C102.996 93.0003 103.49 91.889 104.018 90.9423C104.258 90.4895 104.512 90.0437 104.772 89.5703C105.218 88.8089 104.56 89.879 104.91 89.3439C105.081 89.0901 105.246 88.8294 105.41 88.5688C106.959 86.2895 108.725 84.1666 110.686 82.2302C110.727 82.189 111.083 81.846 110.789 82.1272C110.494 82.4085 110.953 81.9832 111.001 81.9283L111.914 81.1188C112.51 80.6043 113.114 80.1036 113.731 79.6165C115.042 78.5944 116.407 77.6477 117.813 76.7559C119.425 75.7338 119.652 73.2848 118.575 71.8167C118.009 71.0769 117.179 70.5845 116.258 70.4425C115.338 70.3006 114.398 70.5202 113.635 71.0553C104.717 76.701 97.7134 85.077 94.5784 95.2161C92.4734 102.036 91.8949 109.235 92.884 116.304C93.0924 117.887 93.4087 119.455 93.8307 120.996C94.3315 122.779 96.7393 123.74 98.3857 123.054C99.2476 122.702 99.9416 122.032 100.324 121.183C100.707 120.335 100.75 119.371 100.444 118.492L100.457 118.54Z" fill="white"/>
<path d="M104.354 128.302C104.599 128.945 104.647 129.646 104.493 130.317C104.339 130.988 103.99 131.598 103.489 132.07C102.988 132.542 102.358 132.855 101.679 132.969C101.001 133.083 100.303 132.993 99.6757 132.71C99.0481 132.427 98.5185 131.965 98.1538 131.381C97.7892 130.798 97.6059 130.119 97.6272 129.431C97.6485 128.743 97.8734 128.077 98.2735 127.517C98.6736 126.957 99.2308 126.528 99.8746 126.285C100.301 126.123 100.755 126.046 101.212 126.06C101.668 126.074 102.117 126.177 102.533 126.365C102.949 126.552 103.324 126.819 103.636 127.152C103.949 127.484 104.193 127.875 104.354 128.302Z" fill="white"/>
<path d="M224.773 129.221C264.403 156.16 295.541 217.283 281.471 227.319C268.622 236.463 209.949 244.071 190.529 243.687C184.821 243.57 179.868 196.092 185.967 196.202C193.341 196.339 235.756 192.154 236.47 191.949C237.993 191.503 217.262 154.356 208.097 137.467C195.276 113.896 209.901 119.103 224.773 129.221Z" fill="#F7A9A0"/>
<path d="M133.625 208.728C132.747 213.372 137.055 215.684 137.055 215.684C137.055 215.684 134.421 218.387 134.414 222.016C134.414 226.166 140.911 228.005 140.911 228.005C139.632 230.148 139.03 232.627 139.182 235.118C139.58 239.097 145.884 241.882 145.884 241.882C145.798 244.501 146.657 247.063 148.306 249.099C152.922 254.361 163.48 252.639 170.203 251.61C176.925 250.581 195.022 241.375 198.651 239.948L192.422 196.73C192.422 196.73 160.976 192.765 153.245 195.091C146.742 197.066 134.613 203.494 133.625 208.728Z" fill="#F7A9A0"/>
<path d="M137.261 214.902C143.682 211.15 150.864 209.51 157.944 207.459C157.974 207.456 158.004 207.464 158.029 207.482C158.054 207.499 158.073 207.525 158.081 207.554C158.089 207.583 158.086 207.615 158.074 207.642C158.061 207.67 158.04 207.693 158.012 207.706C150.947 209.661 144.368 212.995 137.432 215.252C137.409 215.263 137.384 215.27 137.359 215.271C137.333 215.273 137.308 215.27 137.284 215.261C137.259 215.253 137.237 215.24 137.218 215.223C137.199 215.206 137.183 215.186 137.172 215.163C137.16 215.14 137.154 215.115 137.152 215.089C137.151 215.064 137.154 215.038 137.162 215.014C137.171 214.99 137.184 214.967 137.2 214.948C137.217 214.929 137.238 214.913 137.261 214.902Z" fill="#263238"/>
<path d="M140.979 227.394C142.508 226.687 144.122 226.182 145.781 225.892C147.533 225.48 149.289 225.096 151.05 224.739C154.576 224.053 158.116 223.402 161.676 222.874C161.834 222.874 161.909 223.086 161.744 223.121C158.232 223.807 154.727 224.602 151.249 225.467C149.506 225.896 147.768 226.354 146.035 226.839C144.427 227.364 142.766 227.709 141.082 227.868C141.028 227.863 140.978 227.841 140.937 227.805C140.897 227.769 140.868 227.722 140.857 227.669C140.846 227.616 140.851 227.561 140.873 227.511C140.895 227.462 140.932 227.421 140.979 227.394Z" fill="#263238"/>
<path d="M146.035 241.827C147.29 241.08 149.046 240.963 150.466 240.709C152.076 240.421 153.677 240.121 155.268 239.81C158.486 239.193 161.703 238.576 164.872 237.842C165.037 237.807 165.105 238.054 164.941 238.089C161.696 238.85 158.465 239.646 155.213 240.38C153.622 240.737 152.021 241.084 150.411 241.423C149.039 241.711 147.379 242.232 145.987 241.992C145.97 241.982 145.958 241.966 145.951 241.948C145.944 241.93 145.943 241.91 145.949 241.891C145.954 241.873 145.965 241.857 145.981 241.845C145.996 241.833 146.015 241.827 146.035 241.827Z" fill="#263238"/>
<path d="M235.427 190.453C235.798 190.035 215.17 154.39 205.977 135.292C196.785 116.194 206.327 115.275 224.616 128.288C244.208 142.234 284.455 184.032 287.645 223.436C288.667 236.202 198.205 246.602 198.205 246.602L194.13 194.007C194.13 194.007 234.858 191.098 235.427 190.453Z" fill="#B92B27"/>
<path d="M198.781 214.669C198.972 214.219 199.291 213.836 199.699 213.568C200.106 213.299 200.584 213.157 201.072 213.159C201.396 213.152 201.713 213.063 201.992 212.9C202.272 212.737 202.505 212.505 202.671 212.227C202.864 211.915 202.971 211.557 202.979 211.191C203.055 210.793 203.103 210.381 203.213 209.976C203.35 210.779 203.666 211.568 203.35 212.535C203.175 212.997 202.865 213.395 202.459 213.676C202.054 213.958 201.573 214.11 201.079 214.113C200.751 214.115 200.428 214.198 200.14 214.355C199.851 214.511 199.606 214.737 199.426 215.012C199.227 215.314 199.118 215.666 199.11 216.027C199.014 216.425 198.973 216.823 198.877 217.234C198.706 216.439 198.404 215.622 198.781 214.669ZM270.276 187.682C270.464 187.231 270.783 186.846 271.191 186.577C271.599 186.308 272.078 186.167 272.567 186.172C272.89 186.164 273.206 186.074 273.486 185.911C273.765 185.748 273.999 185.517 274.165 185.239C274.283 185.055 274.365 184.85 274.405 184.636C274.563 184.91 274.714 185.185 274.865 185.459C274.868 185.486 274.868 185.514 274.865 185.541C274.691 186.004 274.381 186.404 273.976 186.687C273.571 186.969 273.089 187.123 272.594 187.126C272.267 187.128 271.945 187.21 271.656 187.365C271.368 187.521 271.122 187.745 270.941 188.018C270.744 188.32 270.635 188.672 270.626 189.033C270.53 189.438 270.488 189.836 270.385 190.247C270.221 189.445 269.898 188.635 270.276 187.682ZM256.556 230.001C256.744 229.55 257.063 229.165 257.471 228.896C257.879 228.627 258.358 228.487 258.847 228.492C259.172 228.484 259.489 228.394 259.769 228.23C260.048 228.065 260.281 227.832 260.445 227.552C260.639 227.24 260.745 226.882 260.754 226.516C260.83 226.118 260.878 225.706 260.987 225.308C261.125 226.104 261.44 226.9 261.125 227.86C260.95 228.323 260.64 228.722 260.235 229.004C259.829 229.287 259.348 229.441 258.854 229.445C258.526 229.447 258.204 229.529 257.916 229.684C257.628 229.84 257.382 230.064 257.201 230.337C257.004 230.64 256.894 230.991 256.885 231.352C256.789 231.75 256.748 232.155 256.652 232.566C256.542 231.764 256.213 230.954 256.59 229.994L256.556 230.001ZM230.694 161.12C230.885 160.669 231.205 160.286 231.614 160.017C232.023 159.748 232.503 159.607 232.992 159.611C233.317 159.607 233.636 159.52 233.918 159.356C234.199 159.193 234.433 158.959 234.597 158.678C234.786 158.365 234.887 158.007 234.892 157.642C234.974 157.244 235.016 156.832 235.132 156.421C235.262 157.244 235.592 158.019 235.262 158.986C235.09 159.448 234.782 159.847 234.38 160.131C233.977 160.415 233.498 160.57 233.006 160.578C232.678 160.572 232.355 160.65 232.066 160.804C231.777 160.957 231.531 161.182 231.352 161.456C231.154 161.756 231.04 162.105 231.023 162.464C230.941 162.876 230.9 163.288 230.79 163.685C230.653 162.897 230.316 162.08 230.694 161.12ZM236.655 214.669C236.85 214.221 237.171 213.84 237.579 213.572C237.987 213.304 238.465 213.16 238.953 213.159C239.277 213.152 239.593 213.062 239.873 212.899C240.152 212.736 240.386 212.505 240.552 212.227C240.741 211.913 240.847 211.557 240.86 211.191C240.929 210.793 240.984 210.381 241.087 209.976C241.217 210.779 241.546 211.568 241.217 212.535C241.045 212.995 240.738 213.391 240.337 213.673C239.935 213.955 239.457 214.108 238.967 214.113C238.637 214.114 238.313 214.196 238.023 214.353C237.734 214.51 237.487 214.736 237.307 215.012C237.11 215.315 236.996 215.665 236.977 216.027C236.909 216.425 236.854 216.823 236.744 217.234C236.614 216.439 236.285 215.622 236.655 214.669ZM212.803 123.994C212.995 123.545 213.316 123.164 213.725 122.898C214.134 122.632 214.613 122.493 215.101 122.498H215.348L216.418 123.061C216.03 123.314 215.578 123.454 215.115 123.465C214.789 123.462 214.467 123.54 214.179 123.694C213.891 123.847 213.647 124.071 213.468 124.344C213.263 124.646 213.149 125 213.139 125.366C213.05 125.764 213.009 126.175 212.906 126.573C212.769 125.757 212.426 124.947 212.803 123.994ZM215.705 226.996C216.157 226.81 216.655 226.764 217.134 226.863C217.613 226.962 218.052 227.202 218.394 227.552C218.63 227.775 218.918 227.936 219.232 228.018C219.546 228.101 219.876 228.103 220.191 228.025C220.546 227.935 220.872 227.756 221.138 227.504C221.488 227.264 221.824 227.017 222.16 226.818C221.693 227.504 221.364 228.272 220.452 228.725C220.005 228.928 219.507 228.992 219.024 228.907C218.54 228.823 218.093 228.594 217.742 228.251C217.379 227.892 216.893 227.686 216.382 227.674C215.872 227.663 215.377 227.847 214.998 228.19C214.648 228.43 214.312 228.677 213.969 228.876C214.436 228.21 214.772 227.401 215.705 226.996ZM250.739 167.918C251.191 167.733 251.689 167.687 252.168 167.786C252.647 167.885 253.085 168.125 253.428 168.474C253.663 168.698 253.951 168.859 254.266 168.941C254.58 169.024 254.91 169.026 255.225 168.947C255.58 168.858 255.904 168.675 256.165 168.419C256.515 168.186 256.851 167.939 257.194 167.733C256.72 168.419 256.391 169.187 255.479 169.64C255.027 169.849 254.523 169.916 254.033 169.831C253.543 169.747 253.09 169.515 252.735 169.167C252.506 168.931 252.221 168.758 251.906 168.663C251.592 168.568 251.258 168.555 250.937 168.625C250.581 168.694 250.252 168.86 249.984 169.105C249.634 169.345 249.298 169.592 248.962 169.791C249.469 169.132 249.806 168.316 250.739 167.918ZM274.598 212.028C275.05 211.844 275.548 211.798 276.026 211.897C276.505 211.996 276.944 212.235 277.287 212.583C277.522 212.807 277.81 212.968 278.124 213.051C278.439 213.134 278.769 213.136 279.084 213.057C279.438 212.969 279.762 212.789 280.024 212.535C280.374 212.295 280.71 212.048 281.053 211.849C280.579 212.535 280.25 213.304 279.338 213.756C278.891 213.96 278.393 214.023 277.91 213.939C277.426 213.854 276.979 213.626 276.628 213.283C276.398 213.049 276.113 212.876 275.799 212.781C275.485 212.687 275.152 212.673 274.831 212.741C274.476 212.814 274.147 212.98 273.877 213.221C273.527 213.461 273.191 213.708 272.855 213.907C273.322 213.242 273.665 212.432 274.598 212.028ZM232.374 183.6C232.827 183.414 233.325 183.368 233.804 183.467C234.283 183.566 234.722 183.806 235.064 184.156C235.301 184.38 235.592 184.541 235.908 184.624C236.225 184.707 236.557 184.708 236.875 184.629C237.227 184.538 237.549 184.356 237.808 184.101C238.144 183.867 238.494 183.62 238.843 183.415C238.363 184.101 238.034 184.869 237.122 185.322C236.67 185.531 236.166 185.598 235.676 185.513C235.186 185.428 234.733 185.197 234.378 184.848C234.15 184.611 233.865 184.437 233.55 184.342C233.235 184.247 232.901 184.235 232.58 184.306C232.477 184.326 232.376 184.356 232.278 184.396L231.963 183.819C232.092 183.731 232.23 183.658 232.374 183.6ZM255.342 197.224C255.804 197.395 256.203 197.703 256.487 198.106C256.771 198.508 256.927 198.988 256.933 199.481C256.928 199.809 257.006 200.133 257.161 200.422C257.316 200.712 257.542 200.956 257.818 201.134C258.122 201.331 258.472 201.445 258.833 201.463C259.231 201.546 259.643 201.587 260.041 201.696C259.252 201.834 258.442 202.17 257.489 201.799C257.039 201.608 256.656 201.287 256.387 200.878C256.119 200.469 255.977 199.99 255.98 199.501C255.97 199.176 255.879 198.859 255.717 198.577C255.554 198.296 255.324 198.06 255.047 197.889C254.729 197.7 254.367 197.598 253.997 197.594C253.599 197.512 253.194 197.457 252.783 197.354C253.585 197.224 254.374 196.901 255.342 197.224ZM233.692 137.137C234.154 137.308 234.554 137.615 234.838 138.018C235.122 138.421 235.277 138.901 235.283 139.394C235.283 139.906 235.48 140.398 235.834 140.768C236.189 141.137 236.672 141.356 237.183 141.377C237.581 141.459 237.993 141.5 238.391 141.61C237.602 141.747 236.792 142.083 235.839 141.713C235.388 141.522 235.005 141.202 234.736 140.793C234.467 140.384 234.326 139.904 234.33 139.415C234.319 139.09 234.228 138.773 234.065 138.492C233.902 138.211 233.673 137.974 233.397 137.803C233.079 137.613 232.717 137.512 232.347 137.508C231.949 137.425 231.544 137.377 231.14 137.275C231.922 137.137 232.704 136.822 233.692 137.137ZM236.689 237.65C237.152 237.817 237.553 238.123 237.838 238.525C238.122 238.927 238.277 239.407 238.281 239.9C238.273 240.173 238.327 240.445 238.439 240.695L237.513 240.86C237.384 240.564 237.321 240.243 237.327 239.92C237.318 239.595 237.227 239.278 237.064 238.996C236.902 238.715 236.671 238.478 236.394 238.308C236.076 238.121 235.714 238.022 235.345 238.02C234.947 237.931 234.549 237.89 234.144 237.787C234.919 237.65 235.702 237.313 236.662 237.65H236.689ZM217.646 197.231C218.105 197.402 218.503 197.708 218.787 198.108C219.07 198.508 219.227 198.984 219.238 199.474C219.23 199.803 219.306 200.128 219.459 200.419C219.611 200.711 219.835 200.959 220.109 201.141C220.416 201.335 220.768 201.449 221.131 201.47C221.536 201.539 221.934 201.594 222.345 201.703C221.543 201.834 220.733 202.163 219.78 201.793C219.332 201.598 218.951 201.277 218.684 200.868C218.417 200.46 218.276 199.982 218.277 199.494C218.268 199.17 218.176 198.854 218.012 198.575C217.848 198.295 217.616 198.062 217.337 197.896C217.025 197.705 216.668 197.601 216.302 197.594C215.89 197.519 215.499 197.464 215.087 197.361C215.856 197.231 216.651 196.901 217.619 197.231H217.646ZM211.335 145.843C211.115 145.424 210.896 145.013 210.69 144.601C211.008 144.949 211.222 145.379 211.307 145.843H211.335ZM213.283 148.257C213.681 148.333 214.093 148.381 214.504 148.497C213.964 148.631 213.413 148.718 212.858 148.758C212.741 148.525 212.618 148.292 212.494 148.072C212.735 148.178 212.993 148.241 213.256 148.257H213.283Z" fill="white"/>
<path d="M253.243 191.029C251.514 191.27 204.139 192.84 194.158 194.384C194 194.384 193.98 193.869 194.158 193.849C225.028 189.733 251.5 189.904 253.572 190.055C256.014 190.206 256.474 190.584 253.243 191.029Z" fill="#263238"/>
<path d="M235.132 190.982C235.132 190.885 227.586 177.131 226.777 176.377C225.967 175.622 224.136 173.845 223.347 173.015C221.776 171.328 220.315 169.585 218.805 167.829C218.682 167.685 218.895 167.479 219.018 167.616C220.568 169.263 222.27 170.779 223.964 172.261L226.502 174.428C226.564 174.47 219.272 160.935 218.085 158.527C217.996 158.349 218.181 158.232 218.291 158.369C219.917 160.66 234.755 187.696 236.58 190.645C236.58 190.666 236.031 190.824 235.132 190.982Z" fill="#263238"/>
<path d="M272.464 232.999C257.887 237.32 201.45 245.978 198.534 246.458C198.48 245.42 198.331 244.389 198.089 243.378C198.089 243.268 197.842 243.254 197.835 243.378C197.716 244.817 197.674 246.262 197.711 247.706C197.711 247.947 253.277 240.353 272.485 233.143C272.567 233.108 272.553 232.971 272.464 232.999Z" fill="#263238"/>
<path d="M210.038 241.169C209.445 237.568 209.033 233.939 208.804 230.296C208.465 226.729 208.152 223.162 207.864 219.594C207.288 212.398 206.526 205.188 206.416 197.931C206.416 197.896 206.43 197.863 206.455 197.838C206.479 197.814 206.512 197.8 206.547 197.8C206.581 197.8 206.614 197.814 206.639 197.838C206.663 197.863 206.677 197.896 206.677 197.931C207.974 205.099 208.536 212.433 209.167 219.684C209.483 223.319 209.748 226.96 209.963 230.605C210.28 234.126 210.4 237.662 210.32 241.196C210.313 241.334 210.073 241.313 210.038 241.169Z" fill="#263238"/>
<path d="M263.087 55.1886C262.623 59.6317 260.933 63.8584 258.206 67.3971C255.48 70.9357 251.824 73.6472 247.646 75.2288C243.468 76.8105 238.933 77.2001 234.546 76.3542C230.16 75.5083 226.095 73.4601 222.805 70.4383L210.745 72.2151L216.782 61.7879C215.396 58.3931 214.803 54.727 215.047 51.0683C215.291 47.4097 216.366 43.8549 218.191 40.6745C220.016 37.494 222.542 34.7716 225.577 32.7143C228.613 30.657 232.077 29.3191 235.707 28.8022C239.337 28.2854 243.038 28.6033 246.527 29.7317C250.015 30.8602 253.201 32.7694 255.841 35.3143C258.481 37.8591 260.505 40.9725 261.761 44.4176C263.017 47.8627 263.47 51.5488 263.087 55.1955V55.1886Z" fill="white"/>
<path d="M255.87 35.2808C253.245 32.6867 250.058 30.7326 246.555 29.5702C243.052 28.4079 239.329 28.0685 235.674 28.5786C231.995 29.0634 228.476 30.3821 225.384 32.4339C222.297 34.5125 219.717 37.2606 217.838 40.4738C215.962 43.7024 214.853 47.3188 214.596 51.044C214.34 54.7692 214.942 58.5036 216.357 61.9592V61.5476L210.368 71.9953L209.922 72.7636L210.793 72.6333L222.846 70.7811L222.558 70.6919C225.911 73.7239 230.042 75.7641 234.487 76.5846C235.588 76.788 236.703 76.9027 237.821 76.9276C243.445 77.1812 248.981 75.4661 253.476 72.0776C254.369 71.4143 255.219 70.6948 256.021 69.9236C256.803 69.1325 257.537 68.294 258.216 67.4128C261.83 62.6998 263.587 56.8239 263.155 50.9005C262.722 44.9772 260.13 39.4189 255.87 35.2808ZM258.147 67.358C257.466 68.2308 256.733 69.0623 255.952 69.8481C255.15 70.6083 254.3 71.3163 253.407 71.9678C251.635 73.2974 249.675 74.3541 247.59 75.1029C245.521 75.8721 243.356 76.35 241.155 76.5229C240.057 76.6017 238.954 76.6017 237.856 76.5229C236.756 76.4728 235.663 76.3398 234.583 76.125C230.257 75.2469 226.262 73.1802 223.045 70.1568L222.922 70.0471H222.757L210.683 71.7346L211.116 72.3726L217.187 61.966L217.303 61.7739L217.214 61.5544C215.874 58.2236 215.295 54.6352 215.52 51.0518C215.772 47.4816 216.825 44.0139 218.6 40.9059C220.403 37.791 222.864 35.106 225.81 33.0376C228.78 30.9851 232.18 29.6383 235.75 29.0999C239.337 28.5568 243 28.8335 246.465 29.9094C250.149 31.0569 253.498 33.0818 256.227 35.8101C258.955 38.5385 260.979 41.8885 262.127 45.5723C263.274 49.2561 263.509 53.1634 262.812 56.9582C262.116 60.753 260.508 64.3219 258.127 67.358H258.147Z" fill="#263238"/>
<path d="M238.26 55.998V58.5362C238.254 58.7893 238.299 59.0412 238.392 59.2764C238.486 59.5115 238.627 59.7252 238.806 59.9042C238.985 60.0833 239.199 60.224 239.434 60.3179C239.669 60.4117 239.921 60.4567 240.174 60.4501C240.682 60.4501 241.168 60.2485 241.527 59.8895C241.886 59.5306 242.088 59.0438 242.088 58.5362V54.4819C242.088 54.4408 242.047 54.4408 242.047 54.3996C242.047 54.3585 242.088 54.3585 242.088 54.3242C242.074 53.8209 241.868 53.3421 241.512 52.9861C241.156 52.6302 240.677 52.4241 240.174 52.4102C239.585 52.4336 238.998 52.3377 238.447 52.1285C237.896 51.9192 237.393 51.6008 236.968 51.1924C236.543 50.784 236.205 50.294 235.974 49.7518C235.743 49.2096 235.624 48.6263 235.624 48.037C235.624 47.4477 235.743 46.8644 235.974 46.3222C236.205 45.78 236.543 45.29 236.968 44.8816C237.393 44.4732 237.896 44.1548 238.447 43.9456C238.998 43.7363 239.585 43.6404 240.174 43.6638C240.933 43.6607 241.679 43.8575 242.338 44.2344C242.997 44.6114 243.545 45.1551 243.926 45.8109C244.054 46.0321 244.224 46.2256 244.428 46.3802C244.631 46.5348 244.863 46.6473 245.11 46.7111C245.357 46.775 245.615 46.789 245.867 46.7522C246.12 46.7154 246.363 46.6286 246.581 46.4969C246.8 46.372 246.991 46.2049 247.144 46.0052C247.297 45.8056 247.409 45.5774 247.473 45.334C247.537 45.0907 247.551 44.8371 247.516 44.588C247.481 44.3389 247.396 44.0993 247.267 43.8833C246.59 42.6937 245.626 41.6919 244.464 40.9685C243.301 40.2451 241.977 39.8231 240.611 39.7406C239.244 39.658 237.878 39.9176 236.637 40.4958C235.397 41.074 234.319 41.9526 233.504 43.052C232.688 44.1514 232.159 45.4369 231.965 46.7922C231.771 48.1474 231.919 49.5296 232.394 50.8136C232.869 52.0976 233.656 53.2429 234.685 54.1457C235.715 55.0486 236.953 55.6805 238.288 55.9843L238.26 55.998ZM238.26 64.5524V65.2384C238.254 65.4915 238.299 65.7433 238.392 65.9785C238.486 66.2137 238.627 66.4273 238.806 66.6064C238.985 66.7855 239.199 66.9262 239.434 67.02C239.669 67.1139 239.921 67.1589 240.174 67.1523C240.682 67.1523 241.168 66.9506 241.527 66.5917C241.886 66.2328 242.088 65.746 242.088 65.2384V64.5524C242.081 64.047 241.877 63.5643 241.52 63.2069C241.162 62.8494 240.679 62.6455 240.174 62.6384C239.922 62.6357 239.672 62.6833 239.438 62.7785C239.205 62.8737 238.993 63.0146 238.815 63.1929C238.636 63.3711 238.495 63.5832 238.4 63.8167C238.305 64.0501 238.257 64.3003 238.26 64.5524Z" fill="#B92B27"/>
</svg>
