<svg width="24" height="22" viewBox="0 0 24 22" fill="none" xmlns="http://www.w3.org/2000/svg">
<path d="M12 0.40332L22 3.61165V11C22 14.7831 19.467 17.4277 17.104 19.0694C15.6783 20.0512 14.1141 20.8514 12.454 21.4482C12.4251 21.4584 12.3961 21.4685 12.367 21.4784L12.342 21.4867L12.335 21.4885L12.332 21.4894C12.331 21.4894 12.33 21.4894 12 20.625L11.669 21.4903L11.665 21.4885L11.658 21.4867L11.633 21.4775C11.4994 21.4323 11.3667 21.3849 11.235 21.3354C9.68949 20.7512 8.23117 19.9895 6.895 19.0685C4.535 17.4286 2 14.784 2 11.0009V3.61165L12 0.40332ZM12 20.625L11.669 21.4903L12 21.5967L12.331 21.4903L12 20.625ZM12 19.6423L12.009 19.6387C13.3929 19.1148 14.6989 18.4326 15.896 17.6082C18.034 16.1242 20 13.9544 20 11V4.91332L12 2.34665L4 4.91332V11C4 13.9544 5.966 16.1223 8.104 17.6092C9.30371 18.4351 10.6128 19.1183 12 19.6423ZM18.072 7.64774L11.001 14.1295L6.758 10.241L8.173 8.9439L11 11.5372L16.657 6.35157L18.072 7.64774Z" fill="#B92B27"/>
</svg>
