<svg width="173" height="206" viewBox="0 0 173 206" fill="none" xmlns="http://www.w3.org/2000/svg">
<path d="M30.9435 68.582C30.9435 68.582 29.9348 77.3778 28.2402 78.6689C26.5456 79.96 23.0051 80.7518 21.1491 80.7518C19.2931 80.7518 12.1365 77.7762 9.78627 78.3159C7.43604 78.8555 1.04097 91.57 0.390368 94.591C-0.260234 97.612 -0.0484132 100.668 0.66271 102.605C1.37383 104.542 2.95747 108.188 2.95747 108.188C2.95747 108.188 2.22618 103.71 2.33209 101.677C2.438 99.6445 4.61676 95.1912 4.61676 95.1912C4.61676 95.1912 3.3559 100.865 3.75433 103.881C4.15277 106.897 6.14492 111.209 7.18891 112.379C8.2329 113.549 13.4075 117.044 13.4075 117.044C13.4075 117.044 10.0334 113.514 9.37271 111.204C8.71202 108.894 7.85968 104.905 8.0009 103.508C8.28333 100.441 10.568 96.1242 10.568 96.1242C10.568 96.1242 9.44836 101.627 10.0132 103.735C10.5781 105.843 13.6697 109.721 13.6697 109.721C13.6697 109.721 13.0443 106.236 12.7619 104.516C12.4795 102.797 15.1424 94.3691 16.9278 94.5708C20.3573 94.9592 21.5122 109.852 23.3632 115.385C25.2141 120.918 38.8969 131.751 38.8969 131.751L30.9435 68.582Z" fill="#B92B27"/>
<path opacity="0.8" d="M30.9435 68.582C30.9435 68.582 29.9348 77.3778 28.2402 78.6689C26.5456 79.96 23.0051 80.7518 21.1491 80.7518C19.2931 80.7518 12.1365 77.7762 9.78627 78.3159C7.43604 78.8555 1.04097 91.57 0.390368 94.591C-0.260234 97.612 -0.0484132 100.668 0.66271 102.605C1.37383 104.542 2.95747 108.188 2.95747 108.188C2.95747 108.188 2.22618 103.71 2.33209 101.677C2.438 99.6445 4.61676 95.1912 4.61676 95.1912C4.61676 95.1912 3.3559 100.865 3.75433 103.881C4.15277 106.897 6.14492 111.209 7.18891 112.379C8.2329 113.549 13.4075 117.044 13.4075 117.044C13.4075 117.044 10.0334 113.514 9.37271 111.204C8.71202 108.894 7.85968 104.905 8.0009 103.508C8.28333 100.441 10.568 96.1242 10.568 96.1242C10.568 96.1242 9.44836 101.627 10.0132 103.735C10.5781 105.843 13.6697 109.721 13.6697 109.721C13.6697 109.721 13.0443 106.236 12.7619 104.516C12.4795 102.797 15.1424 94.3691 16.9278 94.5708C20.3573 94.9592 21.5122 109.852 23.3632 115.385C25.2141 120.918 38.8969 131.751 38.8969 131.751L30.9435 68.582Z" fill="white"/>
<path opacity="0.1" d="M38.9024 131.751C38.9024 131.751 36.3807 129.759 33.3546 127.045L22.1885 80.6863C24.1252 80.4744 26.8385 79.7532 28.2406 78.6689C29.9201 77.3727 30.9439 68.582 30.9439 68.582L38.9024 131.751Z" fill="#B92B27"/>
<path opacity="0.3" d="M38.8967 131.751C38.8967 131.751 25.2089 120.928 23.363 115.395C21.5171 109.862 20.3369 94.9692 16.9276 94.5808C15.1422 94.3791 12.4591 102.822 12.7617 104.526C13.0643 106.231 13.6594 109.706 13.6594 109.706C13.6594 109.706 10.5729 105.828 10.008 103.72C9.44312 101.611 10.5123 96.3914 10.5527 96.114C10.4165 96.3763 8.268 100.522 7.98557 103.493C7.85948 104.9 8.67652 108.894 9.34225 111.194C10.008 113.494 13.1853 116.822 13.377 117.034C13.1198 116.858 8.18731 113.504 7.16853 112.379C6.14976 111.254 4.14248 106.892 3.73396 103.876C3.34562 100.946 4.52578 95.4987 4.59134 95.2012C4.46021 95.4634 2.41763 99.71 2.31171 101.677C2.2058 103.644 2.95727 108.188 2.95727 108.188C2.95727 108.188 1.38876 104.542 0.682684 102.605C-0.0233959 100.668 -0.240264 97.6119 0.410338 94.5859C1.06094 91.5598 7.47114 78.8604 9.80625 78.3208C7.40053 80.7215 5.56977 88.4783 7.69809 90.2788C9.82642 92.0793 11.7934 86.4306 16.4535 85.9919C21.1136 85.5531 26.8177 99.831 26.8177 99.831L26.6614 94.4295C26.6614 94.4295 29.1579 101.808 30.2775 106.957C30.7365 109.055 33.3389 110.251 36.2691 110.932L38.8967 131.751Z" fill="#B92B27"/>
<path d="M102.772 16.2914C102.772 16.2914 104.325 21.1735 104.088 23.2513C103.851 25.3292 103.478 28.6276 103.478 28.6276C103.478 28.6276 114.22 63.8913 117.6 72.4449C120.979 80.9986 125.871 86.8742 130.798 88.1754C135.726 89.4766 143.654 85.0485 151.981 85.9865C160.307 86.9246 169.007 96.3357 171.413 102.428C173.819 108.521 170.904 119.142 170.904 119.142C170.904 119.142 170.041 110.402 167.348 105.429C167.348 105.429 173.748 126.864 161.956 142.7C153.716 153.795 138.908 162.006 134.798 165.506C130.687 169.006 126.194 175.921 126.194 175.921C126.194 175.921 127.122 165.501 130.869 161.966C130.869 161.966 118.704 169.874 115.436 180.152C112.168 190.431 116.324 206 116.324 206C116.324 206 107.003 192.443 109.934 174.08C111.628 163.454 127.49 150.018 132.967 146.417C141.415 140.869 141.798 127.993 135.675 127.408C125.477 126.44 98.7119 157.028 62.4042 151.001C66.8257 152.987 71.5163 154.31 76.3241 154.925C76.3241 154.925 71.548 156.277 60.9971 154.678C48.4188 152.772 34.3981 135.513 30.0103 106.851C28.1594 94.747 28.1089 38.0992 40.7326 18.677C46.5679 9.69965 66.3936 6.23481 74.0697 6.11377C74.0697 6.11377 76.9293 2.72459 81.1305 1.71086C85.3317 0.697129 88.0198 1.00478 92.3269 0.132265C96.634 -0.740248 110.917 2.86076 110.942 6.3256C110.942 8.78679 107.165 9.05409 106.267 10.436C105.369 11.8179 105.995 15.1718 102.772 16.2914Z" fill="#B92B27"/>
<path opacity="0.8" d="M102.772 16.2914C102.772 16.2914 104.325 21.1735 104.088 23.2513C103.851 25.3292 103.478 28.6276 103.478 28.6276C103.478 28.6276 114.22 63.8913 117.6 72.4449C120.979 80.9986 125.871 86.8742 130.798 88.1754C135.726 89.4766 143.654 85.0485 151.981 85.9865C160.307 86.9246 169.007 96.3357 171.413 102.428C173.819 108.521 170.904 119.142 170.904 119.142C170.904 119.142 170.041 110.402 167.348 105.429C167.348 105.429 173.748 126.864 161.956 142.7C153.716 153.795 138.908 162.006 134.798 165.506C130.687 169.006 126.194 175.921 126.194 175.921C126.194 175.921 127.122 165.501 130.869 161.966C130.869 161.966 118.704 169.874 115.436 180.152C112.168 190.431 116.324 206 116.324 206C116.324 206 107.003 192.443 109.934 174.08C111.628 163.454 127.49 150.018 132.967 146.417C141.415 140.869 141.798 127.993 135.675 127.408C125.477 126.44 98.7119 157.028 62.4042 151.001C66.8257 152.987 71.5163 154.31 76.3241 154.925C76.3241 154.925 71.548 156.277 60.9971 154.678C48.4188 152.772 34.3981 135.513 30.0103 106.851C28.1594 94.747 28.1089 38.0992 40.7326 18.677C46.5679 9.69965 66.3936 6.23481 74.0697 6.11377C74.0697 6.11377 76.9293 2.72459 81.1305 1.71086C85.3317 0.697129 88.0198 1.00478 92.3269 0.132265C96.634 -0.740248 110.917 2.86076 110.942 6.3256C110.942 8.78679 107.165 9.05409 106.267 10.436C105.369 11.8179 105.995 15.1718 102.772 16.2914Z" fill="white"/>
<path opacity="0.3" d="M170.904 119.142C170.904 119.142 170.042 110.417 167.374 105.444C167.56 106.09 173.592 127.131 161.977 142.7C153.731 153.796 138.929 162.006 134.818 165.506C130.708 169.007 126.214 175.921 126.214 175.921C126.214 175.921 127.147 165.527 130.879 161.971C130.511 162.213 118.674 170.04 115.457 180.153C112.188 190.426 116.344 206 116.344 206C116.344 206 106.999 192.448 109.924 174.116C111.619 163.484 127.48 150.048 132.957 146.447C141.405 140.9 141.788 128.019 135.666 127.439C125.468 126.47 98.7023 157.059 62.3947 151.032C66.8165 153.017 71.5069 154.339 76.3145 154.956C76.3145 154.956 71.5384 156.312 60.9926 154.708C48.4143 152.797 34.3885 135.543 30.0058 106.882C28.9164 99.7905 28.4473 77.3927 30.7925 56.1548C30.7937 56.1464 30.7937 56.1379 30.7925 56.1296C27.7665 97.1478 49.892 120.59 57.1394 124.624C64.7182 128.697 73.3951 130.257 81.9178 129.078C81.9178 129.078 76.1077 128.14 73.0817 126.163C73.0817 126.163 96.7858 125.799 110.403 117.957C123.919 110.175 114.256 78.4921 114.085 77.9323L117.893 85.3512C117.711 84.7863 111.84 66.4938 107.115 40.4243C110.559 51.4946 115.502 67.1192 117.59 72.435C120.954 81.0088 125.856 86.8592 130.784 88.1604C135.711 89.4616 143.649 85.0385 151.966 85.9816C160.283 86.9247 168.988 96.3358 171.408 102.423C173.829 108.511 170.904 119.142 170.904 119.142Z" fill="#B92B27"/>
<path opacity="0.3" d="M42.8003 99.4727C42.8003 99.4727 53.8958 119.082 61.5467 121.205C69.1976 123.328 82.9006 122.925 82.9006 122.925C82.9006 122.925 70.9073 121.452 62.9185 117.422C54.9297 113.393 42.8003 99.4727 42.8003 99.4727Z" fill="#B92B27"/>
<path opacity="0.3" d="M170.904 119.142C170.904 119.142 170.041 110.417 167.373 105.444C167.56 106.09 173.592 127.131 161.977 142.7C153.731 153.795 138.928 162.006 134.818 165.506C130.708 169.006 126.214 175.921 126.214 175.921C126.214 175.921 127.147 165.526 130.879 161.971C130.511 162.213 118.674 170.04 115.456 180.152C112.188 190.426 116.344 206 116.344 206C116.344 206 106.998 192.448 109.924 174.115C111.618 163.484 127.48 150.048 132.957 146.447C141.405 140.899 141.788 128.018 135.665 127.438C125.468 126.47 98.702 157.058 62.3944 151.032C66.8162 153.017 71.5066 154.339 76.3142 154.955C76.3142 154.955 71.5381 156.312 60.9923 154.708C48.414 152.797 34.3882 135.543 30.0055 106.881C29.5011 103.548 29.1178 96.8248 29.1128 88.4275C33.9444 124.518 50.4969 134.595 63.514 139.225C77.8626 144.329 113.388 132.618 125.548 124.851C139.266 116.076 151.214 113.352 141.072 101.046C135.287 94.0307 127.858 94.7066 121.544 80.2319C124.338 84.5088 127.571 87.3432 130.808 88.1955C135.746 89.5018 143.674 85.0736 151.991 86.0167C160.308 86.9599 168.987 96.3356 171.408 102.423C173.829 108.51 170.904 119.142 170.904 119.142Z" fill="#B92B27"/>
<path opacity="0.3" d="M86.1332 8.36266C86.1332 8.36266 78.4016 6.27468 74.0693 6.11329C74.6886 5.41457 75.3744 4.77777 76.117 4.21191C77.63 4.53469 79.0775 4.8373 79.6474 4.93817C81.1301 5.19034 86.1332 8.36266 86.1332 8.36266Z" fill="#B92B27"/>
<path opacity="0.3" d="M104.497 15.1621C104.031 15.6859 103.434 16.0759 102.767 16.2919C101.519 14.8365 100.065 13.5723 98.4497 12.5396C98.6565 12.5648 103.392 13.2759 104.204 14.6477C104.33 14.8091 104.401 14.9856 104.497 15.1621Z" fill="#B92B27"/>
<path d="M38.5444 42.7085C38.5444 42.7085 40.5164 47.3031 42.3825 49.6735C43.3835 50.9763 44.514 52.1743 45.7565 53.2493C45.2097 52.1216 44.9203 50.8864 44.9092 49.6331C44.9092 49.6331 47.8647 52.7651 48.7826 53.5973C49.6819 54.3821 50.6912 55.0312 51.7784 55.5239C51.7784 55.5239 52.0407 54.6665 52.4895 53.3552C52.7013 52.7298 54.0479 51.0655 54.0479 51.0655C54.0479 51.0655 55.102 54.0915 55.7173 54.9237C56.3326 55.7558 57.6792 57.163 57.6792 57.163C57.6792 57.163 60.1606 55.0901 60.67 54.3689C61.1793 53.6477 62.763 51.4588 62.763 51.4588C62.763 51.4588 62.763 53.6225 62.7277 53.8393C62.6924 54.0562 62.3898 54.9892 62.3898 54.9892C63.7525 54.4727 65.083 53.8749 66.3741 53.1988C67.2516 52.6138 71.1956 48.7354 71.1956 48.7354C71.1956 48.7354 71.13 49.9357 71.0947 50.1526C71.0594 50.3695 69.8036 52.8307 69.8036 52.8307C69.8036 52.8307 73.2029 50.7225 74.3931 49.845C76.5154 48.2257 78.3851 46.2999 79.9409 44.1307C79.9409 44.1307 75.2656 52.4927 72.754 54.9691C70.2424 57.4454 61.7341 60.7337 61.7341 60.7337C62.2013 60.2486 62.6233 59.7219 62.995 59.1602C63.2031 58.7359 63.3265 58.275 63.3581 57.8035C63.3581 57.8035 60.554 60.0781 58.935 60.4614C58.1029 60.6631 57.2808 60.8346 57.2808 60.8346C57.2808 60.8346 53.8361 59.5636 53.3519 59.1854C52.8472 58.7154 52.377 58.2098 51.9448 57.6723C51.9719 58.1549 52.0411 58.6342 52.1516 59.1047C52.379 59.5292 52.6386 59.9355 52.9283 60.3202C52.9283 60.3202 46.8762 56.9511 45.9633 56.0988C42.2664 52.4324 39.6927 47.787 38.5444 42.7085Z" fill="#263238"/>
<path d="M42.4378 31.6738C42.4378 31.6738 40.6423 36.8988 40.6524 39.2692C40.6625 41.6396 42.927 44.59 44.445 45.1297C45.9631 45.6693 49.7558 44.9885 49.7558 44.9885C49.7558 44.9885 48.1116 39.6727 47.0475 37.3023C45.6756 34.246 42.4378 31.6738 42.4378 31.6738Z" fill="#263238"/>
<path d="M39.27 32.5462C40.0013 31.5375 41.005 30.3926 42.407 30.902C43.6477 31.3105 44.5555 32.2335 45.3877 33.1716C46.955 35.0231 48.2275 37.1053 49.1602 39.3447C49.8612 40.9838 50.2496 42.7238 50.8548 44.3528C50.9345 44.562 51.0342 44.7629 51.1523 44.953C51.247 45.0603 51.3634 45.1463 51.4938 45.2052C51.6243 45.2641 51.7657 45.2945 51.9089 45.2945C52.052 45.2945 52.1934 45.2641 52.3239 45.2052C52.4543 45.1463 52.5707 45.0603 52.6654 44.953C53.78 43.7678 54.2238 41.927 54.5012 40.3181C54.6671 41.5207 54.5847 42.7446 54.2591 43.9141C54.0069 44.8168 53.5127 45.9617 52.4788 46.3248C52.0385 46.4807 51.5596 46.4904 51.1135 46.3522C50.6673 46.2141 50.2776 45.9356 50.0024 45.5582C49.5617 44.8096 49.2048 44.0146 48.9383 43.1878C48.2415 40.9931 47.3398 38.8689 46.2451 36.8432C45.451 35.3233 44.4938 33.8943 43.3905 32.5815C42.9013 31.9522 42.204 31.5177 41.4236 31.3559C40.5813 31.3559 39.9358 32.0519 39.27 32.5361V32.5462Z" fill="#263238"/>
<path d="M62.0972 46.3399C63.2778 42.4888 65.2039 38.9073 67.766 35.7992C69.9195 33.2775 75.9817 28.582 75.9817 28.582C75.9817 28.582 78.0395 35.8698 77.2476 38.6689C76.128 42.6179 71.952 44.9984 70.3533 45.4725C67.2919 46.3652 62.0972 46.3399 62.0972 46.3399Z" fill="#263238"/>
<path d="M58.5513 40.5703C58.5731 41.4497 58.671 42.3255 58.8438 43.1879C59.0405 44.3075 59.4087 45.7096 60.5284 46.1736C60.6518 46.2243 60.7881 46.2345 60.9177 46.2028C61.0473 46.1711 61.1635 46.099 61.2496 45.9971C61.6534 45.3034 61.9718 44.5633 62.1977 43.7931C62.7657 42.0861 63.4603 40.4239 64.2756 38.8203C65.9147 35.5673 68.6331 33.0102 71.3364 30.66C72.7101 29.5135 74.1427 28.4395 75.6284 27.4423C77.4642 26.0604 79.8548 25.0668 82.1848 25.6872C83.5466 26.1461 84.3081 27.518 84.8579 28.7132C83.9551 27.3414 82.6135 25.8738 80.8231 26.2571C79.1083 26.4185 77.6508 27.3263 76.3597 28.4157C72.3552 31.6536 68.1238 34.9721 65.5566 39.5112C64.7216 41.0395 63.974 42.6139 63.3174 44.2268C62.9088 45.0741 62.6365 46.0727 61.9254 46.7486C61.6897 46.9542 61.3996 47.0873 61.0901 47.1321C60.7805 47.1768 60.4646 47.1312 60.1804 47.0007C57.9512 45.7752 58.3042 42.6987 58.5463 40.5653L58.5513 40.5703Z" fill="#263238"/>
<path opacity="0.9" d="M103.368 67.9561C102.601 68.7983 96.11 72.4245 94.6474 72.6313C93.1848 72.8381 83.9403 68.3545 81.2118 68.2788C78.4833 68.2032 69.6119 73.0953 67.0902 76.0155C64.5684 78.9356 61.966 87.3329 61.7088 89.3856C61.4516 91.4383 62.2132 95.1654 62.2132 95.1654C62.3276 93.8764 62.5247 92.5961 62.8032 91.3323C63.6556 87.0656 66.7623 83.6714 66.7623 83.6714C66.7623 83.6714 65.794 88.1146 66.1218 91.3979C66.4496 94.6812 68.0484 98.1611 68.6133 98.9227C69.1781 99.6843 72.1437 102.251 72.0125 101.949C71.3857 101.132 70.9295 100.197 70.671 99.2001C70.0704 96.7688 69.8997 94.2512 70.1666 91.761C70.555 88.735 73.2583 84.5388 75.0033 84.2766C76.7483 84.0143 80.8285 94.777 82.1145 99.3766C83.4006 103.976 91.697 110.124 96.4631 111.264C101.229 112.404 110.625 111.239 110.625 111.239" fill="#B92B27"/>
<path opacity="0.8" d="M103.368 67.9561C102.601 68.7983 96.11 72.4245 94.6474 72.6313C93.1848 72.8381 83.9403 68.3545 81.2118 68.2788C78.4833 68.2032 69.6119 73.0953 67.0902 76.0155C64.5684 78.9356 61.966 87.3329 61.7088 89.3856C61.4516 91.4383 62.2132 95.1654 62.2132 95.1654C62.3276 93.8764 62.5247 92.5961 62.8032 91.3323C63.6556 87.0656 66.7623 83.6714 66.7623 83.6714C66.7623 83.6714 65.794 88.1146 66.1218 91.3979C66.4496 94.6812 68.0484 98.1611 68.6133 98.9227C69.1781 99.6843 72.1437 102.251 72.0125 101.949C71.3857 101.132 70.9295 100.197 70.671 99.2001C70.0704 96.7688 69.8997 94.2512 70.1666 91.761C70.555 88.735 73.2583 84.5388 75.0033 84.2766C76.7483 84.0143 80.8285 94.777 82.1145 99.3766C83.4006 103.976 91.697 110.124 96.4631 111.264C101.229 112.404 110.625 111.239 110.625 111.239L103.368 67.9561Z" fill="white"/>
<path opacity="0.3" d="M110.614 111.254C110.614 111.254 101.198 112.419 96.4474 111.254C91.6965 110.089 83.39 104.012 82.1039 99.3921C80.8178 94.7723 76.7377 84.0197 74.9876 84.2618C73.2376 84.5039 70.5393 88.7303 70.151 91.7463C69.881 94.238 70.0518 96.7578 70.6553 99.1904C70.9122 100.189 71.3705 101.124 72.0019 101.939C72.1381 102.237 69.1574 99.6695 68.5976 98.913C68.0378 98.1565 66.4289 94.6765 66.1062 91.3882C65.7884 88.1906 66.6912 83.9138 66.7416 83.6717C66.5954 83.8331 63.6197 87.1618 62.7876 91.3226C62.513 92.5873 62.3142 93.8672 62.1924 95.1556C62.1924 95.1556 61.4763 91.4386 61.6881 89.3758C61.8999 87.3131 64.5679 78.9158 67.0846 75.9956C68.4211 74.4423 71.5631 72.3291 74.6195 70.7051C70.5292 73.5395 69.0717 79.6067 70.4838 80.2876C71.896 80.9685 74.0496 77.9727 78.2406 78.6535C82.5276 79.3495 90.3449 100.935 93.5525 104.521C98.374 109.948 110.614 111.254 110.614 111.254Z" fill="#B92B27"/>
<path d="M75.9009 70.075C77.4139 69.1671 79.0278 68.2492 80.798 67.9819C81.5233 68.0162 82.2415 68.1398 82.9365 68.3501C85.322 68.9856 87.6117 69.8329 89.9065 70.6449C91.3741 71.1492 92.8216 71.7695 94.3094 72.1579C95.0457 72.1276 95.777 71.7191 96.4982 71.4619C98.7342 70.5168 100.913 69.4424 103.024 68.2442C101.112 69.7873 99.031 71.1087 96.821 72.1831C95.9384 72.5563 94.9751 73.1918 93.9664 73.0254C90.2343 72.0167 86.371 70.307 82.7145 69.0965C82.1659 68.9011 81.6026 68.7494 81.03 68.6426C79.2901 68.6073 77.54 69.4748 75.9009 70.0699V70.075Z" fill="white"/>
</svg>
