<svg width="126" height="195" viewBox="0 0 126 195" fill="none" xmlns="http://www.w3.org/2000/svg">
<path d="M10.1904 180.628L11.9761 104.821C11.9761 104.821 28.8549 101.546 43.8911 78.6615C53.8431 63.4774 50.1808 47.3835 52.0916 40.7184C53.2289 36.6466 62.8626 37.4655 67.0823 37.9546C71.0631 38.4209 77.6599 40.6388 80.4351 46.9513C85.5647 58.6436 78.3765 86.6345 78.3765 86.6345C78.3765 86.6345 75.2487 92.3214 83.2217 92.3214H111.656C115.356 92.2824 118.947 93.5695 121.779 95.9497C123.249 97.1516 124.399 98.6988 125.125 100.453C125.851 102.208 126.132 104.115 125.942 106.004C125.089 116.843 119.39 121.689 119.39 123.963C119.39 126.238 122.518 130.23 120.243 136.793C117.969 143.356 116.536 142.776 116.536 145.892C116.536 149.009 115.967 157.004 113.977 161.815C112.989 164.426 111.541 166.838 109.7 168.935C109.7 168.935 110.553 179.172 107.698 185.189C104.843 191.205 92.9122 194.288 88.8859 194.288C84.8595 194.288 56.4023 188.601 48.4178 186.599C40.4334 184.597 17.8905 176.92 10.1904 180.628Z" fill="#263238"/>
<path d="M0 181.492V104.821C0 104.821 16.8901 101.545 31.9263 78.661C41.8784 63.477 46.3711 51.2046 48.2819 44.5396C48.8303 42.5569 50.0635 40.8326 51.7625 39.6728C53.4616 38.513 55.5166 37.9928 57.5629 38.2044C61.5437 38.6707 66.3435 40.2289 69.1187 46.5414C74.2483 58.245 66.4117 86.6341 66.4117 86.6341C66.4117 86.6341 63.2725 92.321 71.257 92.321H99.6915C103.391 92.2839 106.981 93.5708 109.814 95.9492C111.284 97.1511 112.434 98.6984 113.16 100.453C113.887 102.207 114.167 104.114 113.977 106.004C113.124 116.843 107.414 121.688 107.414 123.963C107.414 126.238 110.554 130.23 108.279 136.793C106.004 143.355 104.571 142.775 104.571 145.892C104.571 149.008 104.002 157.004 102 161.815C101.019 164.426 99.5743 166.838 97.7352 168.935C97.7352 168.935 98.5883 179.171 95.7334 185.188C92.8786 191.205 80.9475 194.287 76.9211 194.287C72.8948 194.287 44.4375 188.6 36.4531 186.599C28.4686 184.597 7.70007 177.784 0 181.492Z" fill="#455A64"/>
<path d="M33.7121 39.001C31.4814 37.5981 29.3633 36.0237 27.3769 34.2923C25.2626 32.72 23.2702 30.9901 21.417 29.1172C23.6438 30.5299 25.7615 32.1077 27.7522 33.8373C29.8617 35.4114 31.8536 37.1372 33.7121 39.001Z" fill="#263238"/>
<path d="M45.8368 30.3565C45.0173 29.4741 44.2752 28.5227 43.6189 27.513C42.3223 25.6932 40.5935 23.1341 38.8191 20.2338C37.0448 17.3335 35.5435 14.6379 34.5198 12.6588C33.9084 11.6204 33.3944 10.5277 32.9844 9.39453C33.7 10.3648 34.3353 11.3918 34.8838 12.4655C36.0212 14.3876 37.5567 17.015 39.3196 19.9267C41.0825 22.8384 42.7317 25.4089 43.9601 27.2742C44.6616 28.2534 45.2889 29.2837 45.8368 30.3565Z" fill="#263238"/>
<path d="M56.9602 0C57.26 3.67698 57.3587 7.3676 57.2559 11.0554C57.3589 14.7469 57.2601 18.4413 56.9602 22.1221C56.6671 18.4409 56.5684 14.7469 56.6645 11.0554C56.5685 7.3676 56.6672 3.67735 56.9602 0Z" fill="#263238"/>
<path d="M82.6192 17.311C81.124 19.2225 79.4771 21.0102 77.6943 22.6567C76.0565 24.4447 74.268 26.0886 72.3486 27.5702C73.8458 25.664 75.4927 23.8802 77.2735 22.2359C78.9169 20.45 80.7048 18.8028 82.6192 17.311Z" fill="#263238"/>
<path d="M90.6261 30.7778C89.4663 32.3742 88.1395 33.8422 86.668 35.1568C85.3534 36.6282 83.8854 37.9551 82.2891 39.1148C83.4638 37.5307 84.7893 36.0642 86.2471 34.7359C87.5754 33.2781 89.0419 31.9525 90.6261 30.7778Z" fill="#263238"/>
<path d="M80.993 71.3027C80.4763 72.1256 79.8697 72.8885 79.1846 73.5775C78.0472 74.931 76.3298 76.7622 74.3848 78.7071C72.4399 80.652 70.6201 82.324 69.2552 83.5068C68.5605 84.1822 67.7983 84.7843 66.9805 85.3039C67.5779 84.5393 68.2484 83.8346 68.9823 83.1997L73.9754 78.2863C75.818 76.4096 77.4899 74.7263 78.8889 73.2932C79.5286 72.5674 80.2329 71.9012 80.993 71.3027Z" fill="#455A64"/>
<path d="M82.4949 61.0664C82.0415 61.8314 81.4867 62.5315 80.8457 63.1478C79.3887 64.7098 77.8472 66.1906 76.2279 67.5836C74.3398 69.2101 72.5883 70.6204 71.3144 71.6554C70.6606 72.2528 69.9479 72.7824 69.1875 73.2364C71.2461 71.0335 73.4705 68.9916 75.8412 67.1287C77.7179 65.5022 79.3785 63.9895 80.55 62.8521C81.1467 62.203 81.7973 61.6057 82.4949 61.0664Z" fill="#455A64"/>
<path d="M81.743 51.7734C81.4012 52.4149 80.9553 52.9953 80.4236 53.4909C79.2454 54.7802 77.9424 55.9499 76.5338 56.9826C73.224 59.337 70.7104 61.4184 70.5967 61.3047C72.2298 59.46 74.109 57.8488 76.1812 56.5163C79.4228 54.1278 81.5951 51.6369 81.743 51.7734Z" fill="#455A64"/>
<path d="M78.6042 44.0625C77.4476 45.4483 76.139 46.6997 74.703 47.7931C73.3963 49.0368 71.9586 50.1352 70.415 51.0688C71.5737 49.6884 72.8821 48.441 74.3163 47.3495C75.621 46.1002 77.0589 44.998 78.6042 44.0625Z" fill="#455A64"/>
<path d="M72.8256 39.5127C72.1228 40.3247 71.2789 41.0029 70.3347 41.5145C69.4992 42.1844 68.5467 42.6935 67.5254 43.0158C68.2176 42.2097 69.05 41.5354 69.9821 41.0254C70.8289 40.3506 71.7928 39.8378 72.8256 39.5127Z" fill="#455A64"/>
<path d="M78.7638 84.792C77.5283 86.2479 76.1404 87.5672 74.6237 88.7273C73.2332 90.0468 71.7084 91.217 70.0742 92.2191C71.3181 90.7677 72.7051 89.4455 74.2143 88.2724C75.6083 86.9603 77.1327 85.7941 78.7638 84.792Z" fill="#455A64"/>
<path d="M125.089 111.52C122.362 113.75 119.51 115.824 116.548 117.73C113.69 119.788 110.721 121.687 107.653 123.417C110.386 121.186 113.242 119.109 116.206 117.196C119.058 115.137 122.023 113.242 125.089 111.52Z" fill="#455A64"/>
<path d="M124.646 98.52C123.091 99.9458 121.409 101.225 119.619 102.342C117.94 103.613 116.147 104.725 114.262 105.663C115.812 104.235 117.496 102.96 119.289 101.853C120.965 100.575 122.759 99.4593 124.646 98.52Z" fill="#455A64"/>
<path d="M120.745 130.128C120.825 130.276 117.822 132.05 114.285 134.473C110.747 136.895 107.983 139.022 107.87 138.909C107.756 138.795 108.438 138.226 109.53 137.316C110.622 136.406 112.158 135.212 113.943 133.984C115.729 132.755 117.412 131.709 118.652 131.083C119.301 130.668 120.006 130.346 120.745 130.128Z" fill="#455A64"/>
<path d="M117.422 144.266C115.408 146.147 113.261 147.881 110.996 149.452C108.842 151.193 106.561 152.771 104.172 154.172C108.334 150.562 112.747 147.252 117.377 144.266H117.422Z" fill="#455A64"/>
<path d="M113.261 162.373C112.708 163.065 112.07 163.684 111.361 164.215C110.133 165.284 108.37 166.706 106.346 168.162C104.321 169.618 102.41 170.823 101 171.654C100.271 172.157 99.4796 172.562 98.6455 172.859C99.3027 172.267 100.019 171.745 100.784 171.301C102.126 170.391 103.98 169.129 106.004 167.673C108.029 166.217 109.803 164.875 111.1 163.897C111.763 163.312 112.488 162.801 113.261 162.373Z" fill="#455A64"/>
<path d="M109.609 177.079C108.929 177.864 108.166 178.573 107.334 179.195C105.879 180.423 103.809 182.049 101.454 183.744C99.0998 185.439 96.9047 186.883 95.2555 187.861C94.4065 188.447 93.4947 188.935 92.5371 189.317C93.3168 188.648 94.1499 188.043 95.028 187.509C96.5976 186.44 98.7586 184.95 101.102 183.266C103.445 181.583 105.56 180.014 107.073 178.865C107.868 178.201 108.716 177.603 109.609 177.079Z" fill="#455A64"/>
<path d="M102.592 55.47C100.612 55.5649 98.6269 55.4659 96.666 55.1743C100.606 54.7648 104.578 54.7648 108.518 55.1743C106.557 55.4665 104.572 55.5655 102.592 55.47Z" fill="#263238"/>
</svg>
